<?xml version="1.0" encoding="UTF-8" standalone="no"?>
<!-- Created with Inkscape (http://www.inkscape.org/) -->

<svg
   width="210mm"
   height="297mm"
   viewBox="0 0 210 297"
   version="1.1"
   id="svg1"
   inkscape:version="1.3 (0e150ed6c4, 2023-07-21)"
   sodipodi:docname="旗帜.svg"
   xmlns:inkscape="http://www.inkscape.org/namespaces/inkscape"
   xmlns:sodipodi="http://sodipodi.sourceforge.net/DTD/sodipodi-0.dtd"
   xmlns="http://www.w3.org/2000/svg"
   xmlns:svg="http://www.w3.org/2000/svg">
  <sodipodi:namedview
     id="namedview1"
     pagecolor="#ffffff"
     bordercolor="#000000"
     borderopacity="0.25"
     inkscape:showpageshadow="2"
     inkscape:pageopacity="0.0"
     inkscape:pagecheckerboard="0"
     inkscape:deskcolor="#d1d1d1"
     inkscape:document-units="mm"
     inkscape:zoom="1.0877315"
     inkscape:cx="396.69717"
     inkscape:cy="561.25984"
     inkscape:window-width="2560"
     inkscape:window-height="1494"
     inkscape:window-x="-11"
     inkscape:window-y="-11"
     inkscape:window-maximized="1"
     inkscape:current-layer="layer1" />
  <defs
     id="defs1" />
  <g
     inkscape:label="图层 1"
     inkscape:groupmode="layer"
     id="layer1">
    <rect
       style="fill:#00ffff;fill-opacity:1;stroke-width:0.264583"
       id="rect28"
       width="177.81081"
       height="103.37838"
       x="21.891891"
       y="51.324326" />
    <path
       sodipodi:type="star"
       style="fill:#ff6600;fill-opacity:1;stroke-width:0.264583"
       id="path65-1"
       inkscape:flatsided="false"
       sodipodi:sides="3"
       sodipodi:cx="132.32432"
       sodipodi:cy="-3.8918917"
       sodipodi:r1="3.5416751"
       sodipodi:r2="21.399612"
       sodipodi:arg1="-1.2924967"
       sodipodi:arg2="-0.93756957"
       inkscape:rounded="0"
       inkscape:randomized="0"
       d="m 133.2973,-7.2972972 11.69022,-13.8452988 -10.20051,19.7960262 6.14526,17.0466828 -12.0436,-18.7319212 -17.83549,-3.2013835 z"
       inkscape:transform-center-x="-0.36486413"
       inkscape:transform-center-y="-0.29212675"
       transform="translate(47.015953,78.692959)" />
    <ellipse
       style="fill:#ff6600;fill-opacity:1;stroke-width:0.264583"
       id="path28"
       cx="58.743244"
       cy="81.972977"
       rx="9.1216221"
       ry="9.2432432" />
    <path
       sodipodi:type="star"
       style="fill:#ff6600;fill-opacity:1;stroke-width:0.264583"
       id="path65"
       inkscape:flatsided="false"
       sodipodi:sides="3"
       sodipodi:cx="57.648647"
       sodipodi:cy="70.054054"
       sodipodi:r1="2.5395341"
       sodipodi:r2="1.269767"
       sodipodi:arg1="-1.8622531"
       sodipodi:arg2="-0.81505557"
       inkscape:rounded="0"
       inkscape:randomized="0"
       d="m 56.918918,67.621622 1.600571,1.508342 1.600572,1.508342 -2.106549,0.631965 -2.106548,0.631964 0.505977,-2.140307 z"
       inkscape:transform-center-x="-0.36486413"
       inkscape:transform-center-y="-0.29212675" />
    <path
       sodipodi:type="star"
       style="fill:#ff6600;fill-opacity:1;stroke-width:0.264583"
       id="path72"
       inkscape:flatsided="false"
       sodipodi:sides="3"
       sodipodi:cx="159.56757"
       sodipodi:cy="88.054054"
       sodipodi:r1="23.295542"
       sodipodi:r2="3.8554549"
       sodipodi:arg1="0.50101339"
       sodipodi:arg2="1.5482109"
       inkscape:rounded="0"
       inkscape:randomized="0"
       d="m 180,99.243244 -20.34536,-7.334718 -19.99341,8.245944 16.52473,-13.952247 2.85551,-21.437769 3.82063,21.28696 z"
       inkscape:transform-center-x="-0.26304505"
       inkscape:transform-center-y="-5.5945956" />
    <path
       sodipodi:type="star"
       style="fill:#ff6600;fill-opacity:1;stroke-width:0.264583"
       id="path78"
       inkscape:flatsided="false"
       sodipodi:sides="3"
       sodipodi:cx="63.729729"
       sodipodi:cy="70.297302"
       sodipodi:r1="2.969162"
       sodipodi:r2="1.5686858"
       sodipodi:arg1="0.96007036"
       sodipodi:arg2="2.0072679"
       inkscape:rounded="0"
       inkscape:randomized="0"
       d="m 65.432431,72.729735 -2.365856,-1.010813 -2.294746,-1.163252 2.058317,-1.543485 2.15478,-1.405683 0.307538,2.554298 z"
       inkscape:transform-center-x="0.62759926"
       inkscape:transform-center-y="-0.12918467" />
    <path
       sodipodi:type="star"
       style="fill:#ff6600;fill-opacity:1;stroke-width:0.264583"
       id="path79"
       inkscape:flatsided="false"
       sodipodi:sides="3"
       sodipodi:cx="68.594589"
       sodipodi:cy="75.891891"
       sodipodi:r1="3.4140818"
       sodipodi:r2="1.8037484"
       sodipodi:arg1="1.4994889"
       sodipodi:arg2="2.5466864"
       inkscape:rounded="0"
       inkscape:randomized="0"
       d="m 68.837832,79.297297 -1.737109,-2.394529 -1.576923,-2.502925 2.942277,-0.307116 2.956058,-0.114193 -1.205168,2.701645 z"
       inkscape:transform-center-x="0.12162248"
       inkscape:transform-center-y="0.74602297" />
    <path
       sodipodi:type="star"
       style="fill:#ff6600;fill-opacity:1;stroke-width:0.264583"
       id="path80"
       inkscape:flatsided="false"
       sodipodi:sides="3"
       sodipodi:cx="49.864864"
       sodipodi:cy="72"
       sodipodi:r1="3.308466"
       sodipodi:r2="1.7479486"
       sodipodi:arg1="1.8692953"
       sodipodi:arg2="2.9164928"
       inkscape:rounded="0"
       inkscape:randomized="0"
       d="m 48.891891,75.162162 -0.730878,-2.772013 -0.548175,-2.81385 2.766073,0.753048 2.710953,0.932191 -2.035196,2.018966 z"
       inkscape:transform-center-x="-0.48648585"
       inkscape:transform-center-y="0.36922997" />
    <path
       sodipodi:type="star"
       style="fill:#ff6600;fill-opacity:1;stroke-width:0.264583"
       id="path81"
       inkscape:flatsided="false"
       sodipodi:sides="3"
       sodipodi:cx="45.24324"
       sodipodi:cy="79.540543"
       sodipodi:r1="3.0768106"
       sodipodi:r2="1.625559"
       sodipodi:arg1="1.2490458"
       sodipodi:arg2="2.2962433"
       inkscape:rounded="0"
       inkscape:randomized="0"
       d="m 46.216213,82.459461 -2.051482,-1.70267 -1.935835,-1.833089 2.500297,-0.9253 2.555419,-0.759938 -0.448815,2.627971 z"
       inkscape:transform-center-x="0.48648705"
       inkscape:transform-center-y="0.30841907" />
    <path
       sodipodi:type="star"
       style="fill:#ff6600;fill-opacity:1;stroke-width:0.264583"
       id="path82"
       inkscape:flatsided="false"
       sodipodi:sides="3"
       sodipodi:cx="46.702702"
       sodipodi:cy="86.837837"
       sodipodi:r1="3.0478289"
       sodipodi:r2="1.6102473"
       sodipodi:arg1="0.49934672"
       sodipodi:arg2="1.5465443"
       inkscape:rounded="0"
       inkscape:randomized="0"
       d="m 49.378377,88.297297 -2.636627,0.150314 -2.640815,-0.0223 1.188138,-2.358544 1.33972,-2.275862 1.44849,2.208229 z"
       inkscape:transform-center-x="-0.036953846"
       inkscape:transform-center-y="-0.7185806" />
    <path
       sodipodi:type="star"
       style="fill:#ff6600;fill-opacity:1;stroke-width:0.264583"
       id="path83"
       inkscape:flatsided="false"
       sodipodi:sides="3"
       sodipodi:cx="51.56757"
       sodipodi:cy="92.432426"
       sodipodi:r1="3.959713"
       sodipodi:r2="2.0920193"
       sodipodi:arg1="0.18534795"
       sodipodi:arg2="1.2325455"
       inkscape:rounded="0"
       inkscape:randomized="0"
       d="m 55.459461,93.162156 -3.197681,1.243749 -3.272121,1.032134 0.521723,-3.391148 0.742206,-3.349807 2.675959,2.147399 z"
       inkscape:transform-center-x="-0.65699007"
       inkscape:transform-center-y="-0.36486602" />
    <path
       sodipodi:type="star"
       style="fill:#ff6600;fill-opacity:1;stroke-width:0.264583"
       id="path84"
       inkscape:flatsided="false"
       sodipodi:sides="3"
       sodipodi:cx="58.864864"
       sodipodi:cy="93.405403"
       sodipodi:r1="2.4324324"
       sodipodi:r2="1.2851175"
       sodipodi:arg1="1.5707963"
       sodipodi:arg2="2.6179939"
       inkscape:rounded="0"
       inkscape:randomized="0"
       d="m 58.864864,95.837836 -1.112944,-1.789874 -0.993604,-1.858775 2.106548,-0.0689 2.106549,0.0689 -0.993604,1.858775 z"
       inkscape:transform-center-y="0.57365624" />
    <path
       sodipodi:type="star"
       style="fill:#ff6600;fill-opacity:1;stroke-width:0.264583"
       id="path85"
       inkscape:flatsided="false"
       sodipodi:sides="3"
       sodipodi:cx="64.459457"
       sodipodi:cy="91.702705"
       sodipodi:r1="2.9391193"
       sodipodi:r2="1.5528132"
       sodipodi:arg1="1.1441688"
       sodipodi:arg2="2.1913664"
       inkscape:rounded="0"
       inkscape:randomized="0"
       d="m 65.675674,94.378381 -2.119176,-1.412389 -2.022352,-1.54785 2.282753,-1.129066 2.351653,-0.977483 -0.163577,2.541455 z"
       inkscape:transform-center-x="0.60810891"
       inkscape:transform-center-y="0.14228069" />
    <path
       sodipodi:type="star"
       style="fill:#ff6600;fill-opacity:1;stroke-width:0.264583"
       id="path86"
       inkscape:flatsided="false"
       sodipodi:sides="3"
       sodipodi:cx="69.810806"
       sodipodi:cy="84.405411"
       sodipodi:r1="3.0768106"
       sodipodi:r2="1.625559"
       sodipodi:arg1="0.32175055"
       sodipodi:arg2="1.3689481"
       inkscape:rounded="0"
       inkscape:randomized="0"
       d="m 72.729725,85.378384 -2.593026,0.619583 -2.627971,0.448815 0.759938,-2.555418 0.9253,-2.500298 1.833088,1.935835 z"
       inkscape:transform-center-x="-0.30841919"
       inkscape:transform-center-y="-0.48648754" />
    <path
       style="fill:#0000ff;fill-opacity:1;stroke-width:0.264583"
       id="path87"
       d="m 30.727004,146.21604 c 1.926519,-1.25757 4.239151,-1.49906 6.454227,-1.86699 1.741525,-0.26823 3.489434,-0.55435 5.258692,-0.45568 1.666065,0.0929 2.58092,0.3029 4.295852,0.58936 3.292766,0.61292 6.584486,1.24979 9.857168,1.96369 2.851028,0.62191 5.678503,1.35699 8.514141,2.04443 5.163841,1.17445 10.209453,2.79134 15.333768,4.11517 4.109164,0.83853 8.310403,1.15127 12.492177,1.37753 3.551074,0.18132 7.107451,0.14582 10.661651,0.14525 3.99546,-0.0158 7.99092,-0.008 11.98639,-0.006 2.80667,0.0168 5.55894,-0.58052 8.31074,-1.04788 1.76799,-0.30028 3.54076,-0.5717 5.31057,-0.86108 4.21319,-0.65281 8.45283,-1.1359 12.65545,-1.85854 1.48566,-0.25546 5.19982,-0.9901 6.70868,-1.28509 4.75807,-0.87832 9.47483,-2.00361 14.10074,-3.42329 0.51761,-0.19791 1.04232,-0.37818 1.55284,-0.59373 0.49498,-0.20898 0.97438,-0.45309 1.46182,-0.6791 1.92415,-0.89215 3.82852,-1.82523 5.7563,-2.70938 1.51235,-0.78353 3.03405,-1.54714 4.65243,-2.08553 0.60415,-0.15443 1.20505,-0.30244 1.80637,-0.46481 0.19399,-0.0524 0.39558,-0.0769 0.58626,-0.14025 0.43285,-0.14387 0.84201,-0.3511 1.26413,-0.52396 1.28058,-0.40218 2.31161,-1.30853 3.42544,-2.01801 1.05373,-0.67119 1.48499,-0.86837 2.58456,-1.44526 0.98431,-0.48516 1.9856,-0.93983 3.02819,-1.28611 0.27421,-0.0911 0.97737,-0.26574 1.26065,-0.42066 0.15936,-0.0871 0.28869,-0.22048 0.43303,-0.33072 1.30676,-1.07072 2.58173,-2.16779 3.75004,-3.389 0.80772,-0.91055 1.42685,-1.96093 1.9672,-3.04584 0.43487,-0.92119 0.55445,-1.92593 0.62081,-2.92943 0.0271,-0.43271 0.0201,-0.87755 0.0968,-1.30632 0.056,-0.31274 0.19874,-0.61476 0.30622,-0.91174 0.23241,-0.76431 0.30554,-1.55835 0.50082,-2.33354 0.22786,-0.95436 0.41812,-1.91656 0.58104,-2.88388 0,0 -3.47156,-1.8394 -3.47156,-1.8394 v 0 c -0.14741,0.95541 -0.31714,1.90809 -0.56822,2.84268 -0.0796,0.26861 -0.21508,0.68741 -0.26712,0.98164 -0.0773,0.43688 -0.0687,0.8939 -0.24385,1.31135 -0.11673,0.32645 -0.27488,0.65808 -0.34317,0.99918 -0.0866,0.43262 -0.072,0.88887 -0.0982,1.32645 -0.0513,0.9534 -0.13897,1.91277 -0.54198,2.79298 -0.5159,1.05123 -1.10931,2.07195 -1.87934,2.95984 -1.15108,1.21232 -2.40593,2.30335 -3.74181,3.30932 -0.58473,0.39509 -0.93887,0.44409 -1.59987,0.6883 -1.03285,0.3816 -2.02542,0.85992 -3.00513,1.36025 -1.12393,0.60193 -1.52552,0.79471 -2.61801,1.47122 -1.11451,0.69016 -2.17146,1.51342 -3.43967,1.9127 -0.32663,0.13085 -0.89588,0.36744 -1.23901,0.47249 -0.79253,0.24262 -1.61651,0.37599 -2.4028,0.64124 -1.60773,0.57091 -3.11774,1.34522 -4.61493,2.16018 -2.87894,1.37119 -5.72211,2.84521 -8.71364,3.95798 -4.56977,1.4387 -9.22493,2.61281 -13.93597,3.48837 -2.05181,0.4064 -4.63484,0.93242 -6.69006,1.28002 -4.22279,0.71419 -8.48378,1.16318 -12.71498,1.81939 -1.78243,0.28217 -3.56723,0.54954 -5.34809,0.84145 -2.7571,0.45192 -5.51735,0.98546 -8.32525,0.95712 -3.98992,0.009 -7.97981,0.0287 -11.96975,0.0179 -3.552069,-0.004 -7.105716,-0.0136 -10.655144,-0.16564 -4.171238,-0.22543 -8.361556,-0.52766 -12.448344,-1.43819 -5.100503,-1.2996 -10.133595,-2.85257 -15.260164,-4.05294 -6.10322,-1.48891 -12.234746,-2.85539 -18.411827,-4.00541 -1.838227,-0.31213 -2.64645,-0.51612 -4.417555,-0.60079 -1.788263,-0.0855 -3.552629,0.20765 -5.309269,0.49707 -2.293059,0.37884 -4.661564,0.68284 -6.650853,1.98501 z" />
    <path
       style="fill:#ffffff;fill-opacity:1;stroke-width:0.264583"
       id="path90"
       d="m 29.474382,139.40089 c 1.436965,-0.49432 2.874843,-0.96951 4.366829,-1.26925 3.586623,-0.3424 7.199302,-0.31242 10.799061,-0.31718 1.662978,0.007 3.331858,-0.0292 4.98665,0.17336 0.87554,0.10715 1.034494,0.17232 1.884169,0.38015 1.443559,0.33258 2.844863,0.78263 4.185084,1.41214 0.24965,0.10545 0.501663,0.20548 0.74895,0.31636 0.597541,0.26794 1.181646,0.56508 1.777754,0.83618 0.935768,0.42558 1.892914,0.79701 2.837514,1.20199 1.408162,0.49802 2.761789,1.13127 4.094506,1.80163 0.175125,0.10146 0.341993,0.21876 0.525378,0.30439 0.585364,0.27334 1.092824,0.39759 1.716058,0.58319 1.058572,0.31524 2.110113,0.64772 3.172839,0.94889 1.06644,0.2954 2.164339,0.50477 3.208779,0.87762 0.9925,0.3543 1.879756,0.79435 2.846295,1.21627 0.550196,0.24017 1.104506,0.4708 1.656757,0.7062 2.971776,1.14889 6.001412,2.13717 9.03654,3.10267 2.274887,0.68229 4.673097,0.69712 7.027486,0.75235 1.847258,0.009 3.699103,0.0559 5.544828,-0.0524 0.578301,-0.0339 1.684631,-0.16301 2.268881,-0.22738 1.57681,-0.11003 2.94756,-0.86039 4.36231,-1.48324 2.5842,-1.13772 -0.37291,0.19253 1.93382,-0.85051 1.24058,-0.59178 2.59666,-0.84243 3.88363,-1.30273 1.14559,-0.45326 2.22467,-1.05289 3.33079,-1.59008 0.72533,-0.35226 1.46271,-0.6792 2.19183,-1.02355 2.18332,-0.99164 4.42964,-1.82089 6.71535,-2.5418 5.59331,-1.702 11.23423,-3.23111 16.92053,-4.58862 1.47218,-0.30557 2.66918,-0.66098 4.17986,-0.59021 1.58165,0.0741 3.435,0.56244 4.93129,0.99503 1.70244,0.4922 3.50112,1.14861 5.17321,1.73491 2.67809,0.87519 5.2973,1.92798 7.98123,2.78505 0.30108,0.0961 2.61181,0.77662 2.98522,0.88685 1.89667,0.47297 3.68656,1.27004 5.55062,1.84775 0.25675,0.0717 0.5231,0.11511 0.77024,0.21499 0.30337,0.12263 0.58445,0.29462 0.87289,0.44913 0.2976,0.15942 1.1782,0.65993 0.885,0.49255 -5.9819,-3.41478 0.28601,0.31846 2.45982,1.36246 1.43815,0.66556 3.00986,0.83878 4.5689,0.97727 1.71063,0.0887 3.42402,0.0957 5.1365,0.10642 0.94032,0.007 1.88065,7.9e-4 2.82097,-0.002 0.9809,0.0569 1.94871,-0.12819 2.92667,-0.12414 0.99219,0.10829 0.4825,0.0489 1.52893,0.17947 0,0 -3.13743,-2.33773 -3.13743,-2.33773 v 0 c -1.07255,-0.1259 -0.54465,-0.0752 -1.58349,-0.15429 -0.97771,0.0295 -1.95043,0.16943 -2.9313,0.11536 -0.93401,0.002 -1.86801,0.005 -2.80199,0.0137 -1.70196,0.005 -3.40648,0.002 -5.10445,-0.12813 -1.5383,-0.15606 -3.07532,-0.38595 -4.4755,-1.08477 -0.25741,-0.13045 -1.01769,-0.54308 -0.77223,-0.39133 0.82227,0.50831 3.33914,1.94996 2.50451,1.46219 -1.12518,-0.65758 -4.17941,-2.64373 -6.00025,-3.32447 -0.24596,-0.0919 -0.50435,-0.14642 -0.75653,-0.21963 -1.83559,-0.59968 -3.62412,-1.34743 -5.50556,-1.8019 -0.71721,-0.20953 -2.26292,-0.65653 -2.94558,-0.8757 -2.65428,-0.85213 -5.25463,-1.86866 -7.90584,-2.73061 -1.68139,-0.58085 -3.48015,-1.22973 -5.1935,-1.70902 -1.57611,-0.4409 -3.40837,-0.90223 -5.06643,-0.94236 -1.42311,-0.0344 -2.77796,0.37524 -4.14463,0.68854 -5.6912,1.44491 -11.36911,2.94399 -17.0175,4.54842 -2.3217,0.70072 -4.61717,1.48506 -6.80087,2.55066 -1.83782,0.8738 -3.66094,1.78791 -5.5514,2.54328 -1.29703,0.43517 -2.64209,0.73589 -3.87131,1.35642 -1.35142,0.6291 -0.41776,0.20219 -1.91013,0.86192 -1.38836,0.61376 -2.75981,1.27715 -4.303235,1.37699 -0.636807,0.0687 -1.596327,0.18018 -2.232491,0.21668 -1.841839,0.10567 -3.690165,0.0576 -5.533223,0.0332 -2.34342,-0.0688 -4.720503,-0.13049 -6.974459,-0.84801 -3.013662,-0.94854 -6.025065,-1.91314 -8.95913,-3.09035 -1.517198,-0.65555 -3.020558,-1.39098 -4.58546,-1.92921 -0.458044,-0.15754 -1.735621,-0.49191 -2.211175,-0.61722 -0.333987,-0.088 -0.668507,-0.17397 -1.002761,-0.26095 -1.712597,-0.50044 -0.436237,-0.11972 -2.144969,-0.65017 -1.118039,-0.34708 -2.258475,-0.65576 -3.265961,-1.27443 -1.329161,-0.65828 -2.692667,-1.24243 -4.08256,-1.76119 -1.810271,-0.75921 -3.60026,-1.55738 -5.38208,-2.38114 -1.353606,-0.5934 -2.768113,-1.00671 -4.209529,-1.33133 -0.313478,-0.0667 -0.624599,-0.14565 -0.940438,-0.20011 -1.949619,-0.33616 -3.940352,-0.23454 -5.907603,-0.22585 -3.6458,0.0381 -7.306231,-0.0181 -10.939171,0.3139 -1.502392,0.33535 -2.953446,0.83893 -4.425797,1.28262 z" />
    <path
       style="fill:#0000ff;fill-opacity:1;stroke-width:0.264583"
       id="path91"
       d="m 33.685072,150.5123 c 4.880049,-0.0825 9.76126,-0.0829 14.641896,-0.0926 3.487613,-0.002 3.298862,-0.007 6.676649,0.008 1.879285,0.008 3.288411,0.0683 5.147654,-0.10011 1.498243,-0.1357 3.302185,-0.48881 4.774393,-0.74941 4.10663,-0.76767 8.107032,-1.97647 12.083947,-3.23461 0.387395,-0.15219 0.783577,-0.28368 1.162187,-0.45657 0.765929,-0.34976 1.467417,-0.79311 2.177765,-1.24084 1.236088,-0.77911 2.444477,-1.59474 3.640785,-2.43312 0.940359,-0.52736 1.857177,-1.28303 2.947837,-1.4954 0.700746,-0.13644 1.747369,-0.0511 2.425673,-0.0171 0.626222,0.0313 1.252099,0.0692 1.87815,0.10374 0.983028,0.034 1.96595,0.0712 2.949083,0.10201 3.264451,0.10231 4.567825,0.0923 7.901869,0.32742 2.47844,0.17481 5.63378,0.49225 8.11208,0.8379 1.13015,0.15763 2.25274,0.36535 3.37912,0.54803 3.90416,0.66368 7.72384,1.70682 11.56269,2.65944 4.94614,1.2274 1.03875,0.2337 6.14234,1.5471 5.13916,1.36815 10.26457,2.78918 15.41329,4.12112 0.5067,0.0982 1.00979,0.2172 1.52008,0.29448 2.11677,0.32056 4.28228,0.33198 6.41686,0.36887 1.88643,0.0326 4.3608,0.0417 6.23666,0.0528 2.72131,0.0254 5.43896,0.17644 8.15844,0.2604 0.6883,0.0213 1.37685,0.0563 2.06539,0.0456 0.70461,-0.0109 2.80256,-0.18281 3.52309,-0.23823 1.33783,-0.12787 2.68091,-0.1987 4.01927,-0.31931 0.5485,-0.0494 1.09906,-0.0953 1.62944,-0.25672 0.19757,-0.0601 0.38142,-0.15845 0.57213,-0.23767 0.15901,-0.10248 0.33013,-0.18823 0.47702,-0.30742 0.32276,-0.26189 0.65513,-0.70194 0.92325,-1.00146 0.59363,-0.66315 1.22197,-1.29218 1.81592,-1.95543 1.36841,-1.50132 2.52328,-3.18017 3.64149,-4.87131 0.4322,-0.6335 0.71124,-1.34811 1.05049,-2.03065 0.27238,-0.54802 0.56504,-1.06929 0.80949,-1.63118 0.45811,-0.91334 0.91921,-1.81996 1.59127,-2.59472 0,0 -3.37781,-2.03145 -3.37781,-2.03145 v 0 c -0.67758,0.8196 -1.15764,1.75451 -1.64419,2.69667 -0.24272,0.55631 -0.52447,1.08309 -0.79203,1.62744 -0.20955,0.42632 -0.38667,0.86843 -0.60512,1.29026 -0.12419,0.23983 -0.26577,0.47025 -0.39865,0.70537 -1.08751,1.68896 -2.2486,3.33769 -3.61139,4.8186 -0.60043,0.66112 -1.22589,1.29515 -1.83528,1.94776 -0.24053,0.25759 -0.57973,0.66964 -0.88008,0.8917 -0.13454,0.0995 -0.2893,0.1682 -0.43394,0.25229 -1.88412,0.69194 -4.09034,0.48137 -6.05532,0.788 -0.79108,0.0601 -2.68816,0.21544 -3.47365,0.22933 -0.67904,0.012 -1.35822,-0.0165 -2.03719,-0.0319 -2.69644,-0.061 -5.39192,-0.16968 -8.08915,-0.198 -2.32846,-0.0228 -3.96349,-0.0268 -6.28032,-0.0958 -2.66879,-0.0795 -5.36203,-0.17431 -7.97157,-0.7913 -5.10881,-1.27505 -10.19274,-2.64807 -15.27664,-4.0182 -4.65629,-1.20465 -1.65248,-0.43773 -6.17447,-1.56851 -3.82596,-0.95673 -7.64205,-1.97112 -11.54036,-2.60098 -1.11483,-0.16812 -2.22652,-0.35852 -3.34448,-0.50435 -2.43882,-0.31812 -5.67001,-0.6273 -8.100031,-0.80203 -3.780829,-0.27186 -4.333337,-0.22102 -8.007061,-0.40074 -1.01365,-0.0496 -2.026359,-0.11689 -3.039539,-0.17533 -1.385429,-0.0926 -3.097834,-0.35583 -4.480451,-0.0126 -1.094309,0.27162 -2.007968,1.05576 -2.960164,1.60419 -2.174173,1.53418 -4.41399,3.0975 -6.920767,4.03237 -3.91972,1.30901 -7.874759,2.54997 -11.955769,3.25693 -1.510183,0.25364 -3.220823,0.57322 -4.753438,0.70802 -1.705298,0.14999 -3.361153,0.12526 -5.072261,0.13266 -3.34764,0.0145 -3.187118,0.01 -6.655633,0.008 -4.965602,-0.01 -9.931725,-0.0113 -14.896772,-0.0926 z" />
    <path
       style="fill:#f2f2f2;fill-opacity:1;stroke-width:0.264583"
       d="m 40.135135,98.027026 c 32.108108,-2.675676 2.918917,6.567564 2.918917,6.567564 0,0 -16.783782,0.97298 0,-0.48648 16.783786,-1.45946 16.783786,-1.45946 16.783786,-1.45946"
       id="path92" />
    <path
       style="fill:#f2f2f2;fill-opacity:1;stroke-width:0.264583"
       d="m 38.189188,102.89189 c 37.216217,-0.24324 36.000002,-1.7027 36.000002,-1.7027 v 0"
       id="path93" />
    <path
       style="fill:#f2f2f2;fill-opacity:1;stroke-width:0.264583"
       d="m 71.999998,101.18919 c 0,0 0,0 -33.567565,0.97297 7.54054,-0.48648 14.108108,0.24325 6.81081,0.72973 -7.297297,0.48649 -7.297297,0.48649 -7.297297,0.48649"
       id="path94" />
    <text
       xml:space="preserve"
       style="font-style:normal;font-variant:normal;font-weight:bold;font-stretch:condensed;font-size:11.2889px;font-family:'Agency FB';-inkscape-font-specification:'Agency FB Bold Condensed';white-space:pre;inline-size:101.15;fill:#f2f2f2;fill-opacity:1;stroke-width:0.264583"
       x="83.189186"
       y="103.37838"
       id="text94" />
    <text
       xml:space="preserve"
       style="font-style:normal;font-variant:normal;font-weight:bold;font-stretch:condensed;font-size:11.2889px;font-family:'Agency FB';-inkscape-font-specification:'Agency FB Bold Condensed';fill:#a1ff2a;fill-opacity:1;stroke-width:0.264999;stroke-dasharray:none;paint-order:stroke fill markers"
       x="54.24324"
       y="127.45946"
       id="text95"><tspan
         sodipodi:role="line"
         id="tspan95"
         style="stroke-width:0.265"
         x="54.24324"
         y="127.45946">  锐意进取  克远笃志</tspan></text>
    <text
       xml:space="preserve"
       style="font-style:normal;font-variant:normal;font-weight:bold;font-stretch:condensed;font-size:11.2889px;font-family:'Agency FB';-inkscape-font-specification:'Agency FB Bold Condensed';fill:#a1ff2a;fill-opacity:1;stroke-width:0.264999;stroke-dasharray:none;paint-order:stroke fill markers"
       x="90.972977"
       y="99.24324"
       id="text96"><tspan
         sodipodi:role="line"
         id="tspan96"
         style="fill:#c83737;stroke-width:0.265"
         x="90.972977"
         y="99.24324">独轮组</tspan></text>
    <path
       sodipodi:type="star"
       style="fill:#e85454;fill-opacity:1;stroke-width:0.264999;stroke-dasharray:none;paint-order:stroke fill markers"
       id="path97"
       inkscape:flatsided="false"
       sodipodi:sides="3"
       sodipodi:cx="144.24324"
       sodipodi:cy="85.135139"
       sodipodi:r1="7.2321415"
       sodipodi:r2="2.0657779"
       sodipodi:arg1="-1.2277724"
       sodipodi:arg2="-0.096838084"
       inkscape:rounded="0"
       inkscape:randomized="0"
       d="m 146.67567,78.324329 -0.37633,6.611077 2.62602,5.711687 -5.5372,-3.631452 -6.25947,-0.581644 5.91353,-2.979625 z"
       inkscape:transform-center-x="1.216218"
       inkscape:transform-center-y="-0.64942963" />
    <path
       sodipodi:type="star"
       style="fill:#c83737;fill-opacity:1;stroke-width:0.264999;stroke-dasharray:none;paint-order:stroke fill markers"
       id="path98"
       inkscape:flatsided="false"
       sodipodi:sides="3"
       sodipodi:cx="137.67567"
       sodipodi:cy="83.918915"
       sodipodi:r1="2.6756756"
       sodipodi:r2="0.76427597"
       sodipodi:arg1="3.1415927"
       sodipodi:arg2="4.1887902"
       inkscape:rounded="0"
       inkscape:randomized="0"
       d="m 135,83.918915 2.29354,-0.661883 1.71997,-1.65532 -0.57356,2.317203 0.57356,2.317203 -1.71997,-1.655321 z"
       inkscape:transform-center-x="0.66892064"
       inkscape:transform-center-y="-1.0572462e-06" />
    <path
       sodipodi:type="star"
       style="fill:#ff7011;fill-opacity:1;stroke-width:0.264999;stroke-dasharray:none;paint-order:stroke fill markers"
       id="path99"
       inkscape:flatsided="false"
       sodipodi:sides="3"
       sodipodi:cx="130.62161"
       sodipodi:cy="74.189186"
       sodipodi:r1="8.6377048"
       sodipodi:r2="2.4672608"
       sodipodi:arg1="1.0062269"
       sodipodi:arg2="2.0534245"
       inkscape:rounded="0"
       inkscape:randomized="0"
       d="m 135.24323,81.486484 -5.76669,-5.111852 -7.48538,-1.831653 7.31034,-2.438182 5.32895,-5.566702 -1.54365,7.550034 z"
       inkscape:transform-center-x="2.0044186"
       inkscape:transform-center-y="-0.17689747" />
  </g>
</svg>
