<?xml version="1.0" encoding="UTF-8" standalone="no"?>
<!-- Created with Inkscape (http://www.inkscape.org/) -->

<svg
   width="210mm"
   height="297mm"
   viewBox="0 0 210 297"
   version="1.1"
   id="svg1"
   inkscape:version="1.3 (0e150ed6c4, 2023-07-21)"
   sodipodi:docname="徽章.svg"
   xmlns:inkscape="http://www.inkscape.org/namespaces/inkscape"
   xmlns:sodipodi="http://sodipodi.sourceforge.net/DTD/sodipodi-0.dtd"
   xmlns="http://www.w3.org/2000/svg"
   xmlns:svg="http://www.w3.org/2000/svg">
  <sodipodi:namedview
     id="namedview1"
     pagecolor="#ffffff"
     bordercolor="#000000"
     borderopacity="0.25"
     inkscape:showpageshadow="2"
     inkscape:pageopacity="0.0"
     inkscape:pagecheckerboard="0"
     inkscape:deskcolor="#d1d1d1"
     inkscape:document-units="mm"
     inkscape:zoom="1.0877315"
     inkscape:cx="397.15684"
     inkscape:cy="561.25984"
     inkscape:window-width="2560"
     inkscape:window-height="1494"
     inkscape:window-x="-11"
     inkscape:window-y="-11"
     inkscape:window-maximized="1"
     inkscape:current-layer="layer1" />
  <defs
     id="defs1" />
  <g
     inkscape:label="图层 1"
     inkscape:groupmode="layer"
     id="layer1">
    <ellipse
       style="fill:#00ffff;stroke-width:0.264999;paint-order:stroke fill markers"
       id="path1"
       cx="105.68919"
       cy="123.2027"
       rx="58.256756"
       ry="56.067566" />
    <path
       sodipodi:type="star"
       style="fill:#0000ff;stroke-width:0.264999;paint-order:stroke fill markers"
       id="path7"
       inkscape:flatsided="false"
       sodipodi:sides="3"
       sodipodi:cx="111.40541"
       sodipodi:cy="82.216217"
       sodipodi:r1="16.896215"
       sodipodi:r2="4.8262091"
       sodipodi:arg1="-0.11542666"
       sodipodi:arg2="0.93177089"
       inkscape:rounded="0"
       inkscape:randomized="0"
       d="m 128.18919,80.270271 -13.90536,5.819835 -9.58507,11.634267 1.91256,-14.952319 -5.28304,-14.118047 11.99281,9.132484 z"
       inkscape:transform-center-x="-3.3533252"
       inkscape:transform-center-y="0.97297192" />
    <path
       sodipodi:type="star"
       style="fill:#0000ff;stroke-width:0.264999;paint-order:stroke fill markers"
       id="path9"
       inkscape:flatsided="false"
       sodipodi:sides="3"
       sodipodi:cx="124.2973"
       sodipodi:cy="97.297295"
       sodipodi:r1="8.4961214"
       sodipodi:r2="2.4268191"
       sodipodi:arg1="-0.23109067"
       sodipodi:arg2="0.81610688"
       inkscape:rounded="0"
       inkscape:randomized="0"
       d="m 132.56757,95.351349 -6.60775,3.713845 -4.11241,6.367336 0.0876,-7.579398 -3.45806,-6.745129 6.52016,3.865555 z"
       inkscape:transform-center-x="-1.2249467"
       inkscape:transform-center-y="0.97297173" />
    <path
       sodipodi:type="star"
       style="fill:#0000ff;stroke-width:0.264999;paint-order:stroke fill markers"
       id="path10"
       inkscape:flatsided="false"
       sodipodi:sides="3"
       sodipodi:cx="132.08109"
       sodipodi:cy="108.72973"
       sodipodi:r1="6.3243241"
       sodipodi:r2="1.8064703"
       sodipodi:arg1="0"
       sodipodi:arg2="1.0471976"
       inkscape:rounded="0"
       inkscape:randomized="0"
       d="m 138.40541,108.72973 -5.42109,1.56445 -4.0654,3.91257 1.35569,-5.47702 -1.35569,-5.47703 4.0654,3.91258 z"
       inkscape:transform-center-x="-1.5810794"
       inkscape:transform-center-y="-1.3698234e-06" />
    <path
       style="fill:#0000ff;stroke-width:0.264999;paint-order:stroke fill markers"
       d="m 53.027026,146.91892 c 0.920975,1.54143 2.86761,1.10093 4.135136,1.94594 0.38163,0.25442 0.624729,0.67448 0.972974,0.97298 0.883861,0.75759 1.979136,1.27467 2.918917,1.94594 0.186616,0.1333 0.281366,0.38393 0.486487,0.48649 0.145042,0.0725 0.356756,-0.0973 0.486487,0 1.199184,0.89939 1.939176,2.60979 2.675675,3.16216 0.129731,0.0973 0.341445,-0.0725 0.486487,0 0.72521,0.36261 1.25838,1.02973 1.945944,1.45946 0.614979,0.38436 1.395326,0.50101 1.945947,0.97297 0.643837,0.55186 0.569492,1.02831 1.216216,1.45946 0.301707,0.20114 0.628975,0.37182 0.972973,0.48649 0.153842,0.0513 0.371822,-0.11467 0.486487,0 0.114665,0.11467 -0.114665,0.37182 0,0.48648 0.114665,0.11467 0.341445,-0.0725 0.486487,0 0.661212,0.33061 1.284732,1.12886 1.945947,1.45946 0.66231,0.33116 1.45542,-0.20618 1.945944,-0.48648 0.882086,-0.50405 1.81044,-0.92701 2.675675,-1.45946 0.195313,-0.12019 0.281366,-0.38393 0.486487,-0.48649 0.145042,-0.0725 0.324324,0 0.486487,0 0.324323,-0.16216 0.671266,-0.28535 0.972973,-0.48648 0.190815,-0.12721 0.281366,-0.38393 0.486487,-0.48649 0.692179,-0.34609 1.58033,0.33427 2.189189,0.48649 0.157319,0.0393 0.341445,-0.0725 0.486487,0 0.239469,0.11973 1.385392,1.62863 1.702702,1.94594 1.210945,1.21095 2.523916,2.36324 3.648649,3.64865 0.567566,0.64865 0.931791,1.56049 1.702702,1.94595 0.145042,0.0725 0.341445,-0.0725 0.486487,0 0.205121,0.10256 0.281366,0.38392 0.486487,0.48648 0.487976,0.24399 5.89286,-0.0994 6.324322,-0.24324 0.844822,-0.28161 2.234912,-1.96881 3.162162,-2.43243 0.43513,-0.21757 0.99794,0.15384 1.45946,0 0.21756,-0.0725 0.27356,-0.40132 0.48649,-0.48649 0.22584,-0.0903 0.49041,0.0435 0.72973,0 2.11211,-0.38402 4.215,-0.81716 6.32432,-1.21622 1.54687,-0.29265 3.06026,-0.7715 4.62162,-0.97297 1.3877,-0.17906 4.97234,-0.23597 6.32433,0.72973 0.70136,0.50097 1.01953,1.42044 1.7027,1.94595 0.40646,0.31266 1.00079,0.25715 1.45946,0.48648 1.89348,0.94674 1.13011,0.97298 2.91892,0.97298 1.76667,0 3.61165,0.12954 5.35135,-0.24325 0.50142,-0.10744 0.95662,-0.38591 1.45946,-0.48648 0.31803,-0.0636 0.68289,0.14504 0.97297,0 0.29009,-0.14504 -0.14504,-0.68289 0,-0.97298 0.10256,-0.20512 0.33547,-0.31389 0.48649,-0.48648 0.417,-0.47658 0.7354,-1.04734 1.21622,-1.45946 0.12312,-0.10553 0.34144,0.0725 0.48648,0 0.6785,-0.33925 0.91163,-1.19577 1.7027,-1.45946 0.23076,-0.0769 0.52734,0.13493 0.72973,0 0.13493,-0.0899 -0.11466,-0.37182 0,-0.48649 0.14346,-0.14345 4.23514,0.20232 4.37838,0.24324 0.22051,0.063 0.28137,0.38393 0.48649,0.48649 0.43513,0.21757 0.99794,-0.15384 1.45946,0 1.00591,0.33531 -0.12164,0.48649 1.45946,0.48649"
       id="path15" />
    <path
       style="fill:#0000ff;stroke-width:0.264999;paint-order:stroke fill markers"
       d="m 75.648647,164.67567 c 0.729731,-0.0811 1.45946,-0.16216 2.189189,-0.24324 0,-0.16216 -0.145042,-0.41396 0,-0.48649 0.290087,-0.14504 0.665292,-0.10256 0.972973,0 0.730608,0.24354 2.430267,1.70162 2.918921,1.94595 0.687993,0.344 1.519549,0.35124 2.189189,0.72973 2.49833,-0.1409 2.839971,2.3798 4.378378,3.4054 0.134926,0.09 0.329165,-0.0393 0.486486,0 0.527669,0.13192 0.934715,0.58662 1.459458,0.72974 0.55313,0.15085 1.146492,0.10419 1.702705,0.24324 3.838014,0.9595 7.400345,2.55574 11.432434,2.18919 3.5689,-0.32445 0.23503,0.12572 1.94594,-0.72973 0.14505,-0.0725 0.34145,0.0725 0.48649,0 0.20512,-0.10256 0.27096,-0.40812 0.48648,-0.48649 0.70253,-0.25546 1.46398,-0.30518 2.1892,-0.48649 0.45758,-0.11439 3.06367,-1.3147 3.89189,-0.48648 0.60945,0.60946 1.09324,1.33649 1.7027,1.94594 0.2226,0.2226 2.14404,-0.22264 2.43243,-0.24324 3.2016,-0.22869 2.07931,-0.097 4.62162,-1.94594 1.11802,-0.81311 0.97298,-0.0102 0.97298,-0.97298"
       id="path16" />
    <path
       style="fill:#0000ff;stroke-width:0.264999;paint-order:stroke fill markers"
       d="m 125.75676,169.29729 c 0.2499,-1.00737 0.66074,-3.68314 2.18918,-2.91891 0.36261,0.1813 0.61037,0.54842 0.97298,0.72973 0.26299,0.13149 1.68295,0.35498 1.94594,0.48648 1.36755,0.68377 -0.67575,0.59911 1.45946,0.24324 0.15996,-0.0266 0.34145,0.0725 0.48649,0 2.02464,-1.01231 -0.52007,0.0336 0.48649,-0.97297 0.11466,-0.11466 0.37181,0.11467 0.48648,0 0.11467,-0.11466 -0.11467,-0.37182 0,-0.48648 0.64865,-0.64865 0.48649,0.81081 0.48649,-0.48649"
       id="path17" />
    <path
       style="fill:#0000ff;stroke-width:0.264999;paint-order:stroke fill markers"
       d="m 99.972973,157.13513 c 5.041737,-1.00835 3.409637,-0.28194 8.756757,-3.64864 0.53589,-0.33742 0.91246,-0.89714 1.45946,-1.21622 0.44295,-0.25839 1.03278,-0.20204 1.45946,-0.48649 0.13493,-0.09 -0.11467,-0.37182 0,-0.48649 0.11466,-0.11466 0.34144,0.0725 0.48648,0 1.16937,-0.58468 2.31759,-1.22073 3.40541,-1.94594 0.38163,-0.25442 0.58601,-0.72673 0.97297,-0.97297 0.52096,-0.33152 1.16292,-0.42985 1.70271,-0.72973 0.20047,-0.11138 0.28136,-0.38393 0.48648,-0.48649 1.24505,-0.62253 5.51861,1.19089 6.32432,1.45946 1.58918,0.52973 2.54701,0.25961 4.13514,0.48649 0.50765,0.0725 0.96639,0.3456 1.45946,0.48648 0.77,0.22 3.18894,0.0703 3.89189,0 1.30869,-0.13087 2.20522,-0.8733 3.40541,-1.21621 0.23388,-0.0668 0.52734,0.13492 0.72973,0 0.13492,-0.0899 -0.0725,-0.34145 0,-0.48649 0.10256,-0.20512 0.29567,-0.35928 0.48648,-0.48649 0.76593,-1.10511 2.1667,-0.86218 3.16217,-1.45946 0.3933,-0.23598 0.59974,-0.70638 0.97297,-0.97297 0.20864,-0.14903 0.49167,-0.14802 0.72973,-0.24324 0.83571,-0.33429 1.58057,-0.93226 2.43243,-1.21622 0.80307,-0.26769 1.64647,-0.41534 2.43243,-0.72973 0.0753,-0.0301 -0.0725,-0.20698 0,-0.24324 0.14505,-0.0725 0.34145,0.0725 0.48649,0 0.0725,-0.0363 -0.0363,-0.17072 0,-0.24324 0.52468,-1.04936 0.93274,-1.21622 1.94594,-1.21622"
       id="path18" />
    <path
       style="fill:#0000ff;stroke-width:0.264999;paint-order:stroke fill markers"
       d="m 104.35135,176.10811 c 1.92922,-0.73551 1.63661,-3.18156 2.91892,-4.37838 0.77285,-0.72133 1.78811,-1.1284 2.67567,-1.70271 0.49089,-0.31763 0.92719,-0.73102 1.45946,-0.97297 0.37638,-0.17108 0.87979,-0.003 1.21622,-0.24324 0.29507,-0.21076 0.1964,-0.75541 0.48649,-0.97298 4.58733,-1.52911 -0.73838,0.62835 1.94594,-1.45945 0.48742,-0.37911 1.13085,-0.49676 1.70271,-0.72973 2.2589,-0.9203 4.4745,-1.97479 6.81081,-2.67568 0.43969,-0.13191 1.02895,0.15655 1.45945,0 1.91108,-0.69494 3.82903,-1.42353 5.5946,-2.43243 3.10912,-1.77664 3.58088,-3.07125 6.81081,-4.62162 0.83343,-0.40005 1.81283,-0.39787 2.67568,-0.72973 0.21404,-0.0823 0.26729,-0.41905 0.48648,-0.48649 7.93784,-1.44324 -0.0973,0.27568 3.64865,-0.97297 1.81594,-0.60531 4.5676,1.05403 6.32433,0 0.13905,-0.0834 -0.09,-0.35156 0,-0.48649 0.10056,-0.15085 0.38591,-0.0924 0.48648,-0.24324 0.40228,-0.60342 0.51994,-1.37965 0.97298,-1.94595 0.76811,-0.96014 1.52174,-0.0623 2.43243,-0.97297 0.44609,-1.03279 1.45946,-1.98018 1.45946,-3.16216"
       id="path19" />
    <text
       xml:space="preserve"
       style="font-weight:bold;font-stretch:condensed;font-size:11.2889px;font-family:'Agency FB';-inkscape-font-specification:'Agency FB Bold Condensed';fill:#0000ff;stroke-width:0.264999;paint-order:stroke fill markers"
       x="72.972977"
       y="116.99999"
       id="text19"><tspan
         sodipodi:role="line"
         id="tspan19"
         style="fill:#ff7f2a;stroke-width:0.265"
         x="72.972977"
         y="116.99999">锐意进取</tspan><tspan
         sodipodi:role="line"
         style="fill:#ff7f2a;stroke-width:0.265"
         x="72.972977"
         y="131.64236"
         id="tspan20">克远笃志</tspan></text>
    <path
       sodipodi:type="star"
       style="fill:#ff7f2a;stroke-width:0.264999;paint-order:stroke fill markers"
       id="path20"
       inkscape:flatsided="false"
       sodipodi:sides="3"
       sodipodi:cx="68.594589"
       sodipodi:cy="92.675674"
       sodipodi:r1="5.061564"
       sodipodi:r2="1.4457774"
       sodipodi:arg1="0.61466295"
       sodipodi:arg2="1.6618605"
       inkscape:rounded="0"
       inkscape:randomized="0"
       d="m 72.729724,95.594593 -4.266611,-1.479132 -4.463949,0.681886 3.414272,-2.955428 1.641444,-4.206836 0.85234,4.43456 z"
       inkscape:transform-center-x="0.23014605"
       inkscape:transform-center-y="-1.0608375" />
    <path
       sodipodi:type="star"
       style="fill:#ff7f2a;stroke-width:0.264999;paint-order:stroke fill markers"
       id="path22"
       inkscape:flatsided="false"
       sodipodi:sides="3"
       sodipodi:cx="67.37838"
       sodipodi:cy="98.756752"
       sodipodi:r1="3.6160707"
       sodipodi:r2="1.0328889"
       sodipodi:arg1="2.7985687"
       sodipodi:arg2="3.8457663"
       inkscape:rounded="0"
       inkscape:randomized="0"
       d="m 63.972974,99.972968 2.618193,-1.884913 1.436641,-2.888579 0.323287,3.209878 1.783262,2.688456 -2.941479,-1.324963 z"
       inkscape:transform-center-x="0.32471513"
       inkscape:transform-center-y="-0.60810934" />
    <path
       sodipodi:type="star"
       style="fill:#ff7f2a;stroke-width:0.264999;paint-order:stroke fill markers"
       id="path23"
       inkscape:flatsided="false"
       sodipodi:sides="3"
       sodipodi:cx="66.405403"
       sodipodi:cy="102.89189"
       sodipodi:r1="2.2947524"
       sodipodi:r2="0.65546948"
       sodipodi:arg1="2.5829933"
       sodipodi:arg2="3.6301909"
       inkscape:rounded="0"
       inkscape:randomized="0"
       d="m 64.459457,104.10811 1.367172,-1.52389 0.498473,-1.98568 0.636138,1.94595 1.47041,1.42453 -2.00331,-0.42206 z"
       inkscape:transform-center-x="-0.040149746"
       inkscape:transform-center-y="-0.53856655" />
  </g>
</svg>
