<?xml version="1.0" encoding="utf-8"?>
<!-- Generator: Adobe Illustrator 26.0.1, SVG Export Plug-In . SVG Version: 6.00 Build 0)  -->
<svg version="1.1" id="图层_1" xmlns="http://www.w3.org/2000/svg" xmlns:xlink="http://www.w3.org/1999/xlink" x="0px" y="0px"
	 viewBox="0 0 1366 768" style="enable-background:new 0 0 1366 768;" xml:space="preserve">
<style type="text/css">
	.st0{fill:#F7F7F7;}
	.st1{fill:#020202;}
</style>
<g>
	<g>
		<path class="st0" d="M631.64,639.49c-90.97,0-181.95-0.13-272.92,0.23c-7.67,0.03-8.69-1.9-8.68-8.99
			c0.24-164.67,0.26-329.34-0.04-494.01c-0.01-7.66,1.89-8.69,8.99-8.68c181.95,0.24,363.89,0.25,545.84-0.04
			c7.66-0.01,8.69,1.89,8.68,8.99c-0.24,164.67-0.26,329.34,0.04,494.01c0.01,7.66-1.89,8.71-8.99,8.69
			C813.58,639.4,722.61,639.49,631.64,639.49z"/>
		<path class="st1" d="M390.84,593.21c16.78-51.47,34.01-101.07,48.98-151.35c10.79-36.23,22.57-71.62,43.33-103.62
			c30.79-47.46,74.39-74.34,129.9-82.73c56.93-8.6,111.49-0.37,163.73,23.48c5.6,2.56,9,1.17,13.15-2.62
			c20.68-18.9,41.61-37.53,62.44-56.26c1.6-1.44,3.12-2.99,4.77-4.37c6.11-5.1,12.75-5.87,18.17,0.23
			c5.48,6.17,3.76,12.53-2.25,17.9c-23.83,21.3-48.17,42.08-71.18,64.23c-10.02,9.65-17.19,11.9-30.65,5.04
			c-44.46-22.64-92.31-30.57-141.98-25.94c-69.61,6.49-116.48,44.27-144.01,107.19c-5.85,13.37-1.18,27.83,1.43,41.41
			c12.44,64.84,49.16,111.03,108.85,139.03c3.2,1.5,6.67,3.22,10.08,3.37c40.11,1.82,79.56-1.1,117.51-15.92
			c66.63-26.03,81.54-101.19,55.91-157.06c-14.24-31.04-40.92-45.86-72.32-53.93c-35-8.99-68.28-5.58-98.75,15.15
			c-31.66,21.54-42.67,65.5-23.57,98.25c10.95,18.78,30.33,25.43,50.51,29.35c7.38,1.43,14.93,1.51,22.51,0.24
			c14.26-2.37,24.6-9.56,29.45-23.39c2.48-7.08,4.62-14.38,5.93-21.75c2.29-12.91-0.98-24.23-11.64-32.72
			c-5.61-4.48-11.42-8.74-16.78-13.5c-4.98-4.42-5.47-10.21-1.76-15.46c4.07-5.76,9.73-6.68,16.13-3.18
			c42.9,23.5,51.87,81.57,17.32,116.44c-19.69,19.87-44.82,21.33-70.36,15.95c-42.01-8.85-66.86-33.25-72.58-69.44
			c-6.92-43.8,10.78-82.93,47.5-105.01c52.73-31.71,131.61-23.26,176.37,19.22c21.8,20.69,32.08,47.24,36.14,76.32
			c7.56,54.08-13.19,111.75-64.87,138.99c-24.12,12.72-49.96,19.35-76.76,23.12c-25.05,3.52-50.19,2.16-75.33,2.23
			c-63.98,0.17-127.95,0.71-191.92,1.09C400.29,593.23,396.35,593.21,390.84,593.21z"/>
		<path class="st0" d="M465.45,440.94c13.33,54.36,41.34,95.36,84.86,125.8c-2.28,2.65-4.96,1.73-7.23,1.75
			c-36.23,0.35-72.47,0.35-108.7,1c-8.89,0.16-10.08-2-7.32-10.25C439.85,521,452.01,482.56,465.45,440.94z"/>
	</g>
</g>
</svg>
