<?xml version="1.0" encoding="utf-8"?>
<!-- Generator: Adobe Illustrator 26.0.1, SVG Export Plug-In . SVG Version: 6.00 Build 0)  -->
<svg version="1.1" id="图层_1" xmlns="http://www.w3.org/2000/svg" xmlns:xlink="http://www.w3.org/1999/xlink" x="0px" y="0px"
	 viewBox="0 0 1366 768" style="enable-background:new 0 0 1366 768;" xml:space="preserve">
<style type="text/css">
	.st0{fill:#020202;}
	.st1{fill:#FA8184;}
	.st2{fill:#F0DB99;}
	.st3{fill:#529049;}
	.st4{fill:#A9DFE9;}
	.st5{fill:#E37135;}
	.st6{fill:#4370CC;}
	.st7{fill:#E28A86;}
	.st8{fill:#C2C9CB;}
	.st9{fill:#55682C;}
	.st10{fill:#86B6BF;}
	.st11{fill:#7D6F4B;}
	.st12{fill:#8E7245;}
	.st13{fill:#84AEAF;}
	.st14{fill:#0A1438;}
	.st15{fill:#85B1B8;}
	.st16{fill:#2A4793;}
	.st17{fill:#C08790;}
	.st18{fill:#C4C8C6;}
	.st19{fill:#5C1812;}
	.st20{fill:#B57073;}
	.st21{fill:#DED6CC;}
	.st22{fill:#C47A7D;}
	.st23{fill:#3A0806;}
	.st24{fill:#4783AC;}
	.st25{fill:#B9BCBD;}
	.st26{fill:#937A73;}
	.st27{fill:#4C0F13;}
	.st28{fill:#7A74A3;}
	.st29{fill:#5B2815;}
	.st30{fill:#5F578F;}
	.st31{fill:#4B1715;}
	.st32{fill:#3C121D;}
	.st33{fill:#9C5356;}
	.st34{fill:#4D1A17;}
	.st35{fill:#3C3F3C;}
	.st36{fill:#4D1311;}
	.st37{fill:#531B1A;}
	.st38{fill:#51242F;}
	.st39{fill:#F0F0EE;}
	.st40{fill:#EFECEA;}
	.st41{fill:#B92F44;}
	.st42{fill:#B53643;}
	.st43{fill:#EBDEDE;}
	.st44{fill:#CE908D;}
	.st45{fill:#F1E2E2;}
	.st46{fill:#C6BFBE;}
	.st47{fill:#A77961;}
	.st48{fill:#F0E3E1;}
	.st49{fill:#F2DEDE;}
	.st50{fill:#501515;}
	.st51{fill:#D59A9E;}
	.st52{fill:#752E1C;}
	.st53{fill:#526730;}
	.st54{fill:#5FAFEE;}
	.st55{fill:#89BEC8;}
	.st56{fill:#7B2C19;}
	.st57{fill:#60A9E6;}
	.st58{fill:#464F8B;}
	.st59{fill:#A54E5C;}
	.st60{fill:#E6EDEF;}
	.st61{fill:#736430;}
	.st62{fill:#030605;}
	.st63{fill:#558F4A;}
	.st64{fill:#9BD6E4;}
	.st65{fill:#3F6FD3;}
	.st66{fill:#1E1E1B;}
	.st67{fill:#202022;}
	.st68{fill:#494946;}
	.st69{fill:#454645;}
	.st70{fill:#EFE8E5;}
	.st71{fill:#7E404B;}
	.st72{fill:#ECE3E2;}
	.st73{fill:#C9C2C0;}
	.st74{fill:#C8D0D1;}
	.st75{fill:#C8CED2;}
	.st76{fill:#274722;}
</style>
<g>
	<g>
		<path class="st0" d="M680.64,0.24c224.53,0,449.06,0.07,673.58-0.24c10.01-0.01,11.79,1.9,11.78,9.99
			c-0.31,249.29-0.3,498.58-0.03,747.87c0.01,7.76-1.19,10.14-11.6,10.14c-449.05-0.3-898.11-0.29-1347.16-0.03
			c-9.47,0.01-11.1-1.71-11.09-9.41C-3.59,508.89-3.55,259.22-4,9.55C-4.02,0.22-0.15,0.1,8.42,0.11
			C232.49,0.27,456.57,0.24,680.64,0.24z"/>
		<path class="st1" d="M825.08,632.81c-11.76,10.47-26.71,12.5-42.86,11.39c-4.04-1.58-8.76-1.65-12.38-4.26
			c-8.56-6.18-14.45-3.91-18.26,4.31c-7.66,14.75-22.07,18.02-39.41,16.15c-6.62-0.71-13.22-1.63-19.83-2.46
			c-7.17-2.04-12.42-5.98-16.19-11.41c-4.24-6.1-8.26-5.61-13.14-0.23c-8.4,9.25-18.91,14.91-33.64,11.75
			c-3.86-1.06-7.69-2.21-11.59-3.16c-16.37-3.97-29.37-10.56-28.84-29.77c-17.27,13.85-33.65,22.88-55.36,14.73
			c-9.46-1.86-15.44-8.01-19.78-14.13c-5-7.05-9.9-9.69-19.09-6.55c-4.07,1.39-8.84,0.67-12.98,2.21
			c-21.95-0.86-29.37-5.2-33.21-19.43c-1.18-2.52-1.13-5.25-0.59-7.73c1.85-8.59-2.75-11.55-12.33-10.67
			c-1.32-0.37-2.65-0.74-3.97-1.11c-0.78-0.91-1.66-1.74-2.65-2.49c-16.8-7.02-23.96-18.7-23.02-34.05
			c0.46-7.43-1.75-12.73-10.88-15.91c-9.14-3.18-12.92-11.2-18.52-17.47c-2.54-6.63-1.59-13.61,1.01-19.59
			c2.51-5.75,1.43-9.76-2.33-14.12c-6.75-14.13-13.31-28.26-2.18-43.06c1.8-2.39,1.85-4.99-0.37-7.37
			c-2.86-3.29-6.78-5.56-10.68-7.84c-8.62-16.22-5.94-25.68,11-38.79c6.5-1.98,9.39-4.16,4.83-10.63
			c-11.05-15.66-6.45-28.14,13.21-36.21c8.36-3.43,11.2-7.13,6.05-13.88c-7.21-9.47-3.06-19-0.49-28.54
			c4.66-5.89,8.47-12.28,14.34-17.5c5.31-1.8,9.76-0.06,13.97,2.46c15.92,9.53,33.61,16.68,49.8,25.79
			c6.33,3.56,14.14,2.51,20.08,6.23c2.61,3.45,2.51,7.25,1.81,11.03c-3.38,18.13-2.18,36.37-0.81,54.5
			c1.47,19.43,14.43,33.83,32.42,45.39c5.96,3.83,14,6.01,15.6,13.41c-1.66,8.67-9.95,8.96-17.59,9.16
			c-23.7,0.65-46.93-1.53-71.53-10.13c39.02,12.81,75.67,24.48,114.53,30.32c8.89,1.34,16.24,4.71,19.66,12.34
			c1.02,4.23,0.7,8.49,0.5,12.74c-1.95,6.32,0.51,13.22-3.56,19.27c-8.07,4.35-16.95,2.17-25.21,1.35
			c-48.04-4.8-91.82-20.61-127.95-34.11c40.6,21.69,90.37,42.95,145.92,53.6c6.43,1.23,17.51-0.5,17.48,9.91
			c-16.39,4.6-13.31,16.06-13.18,26.4c0.3,23.51,9.79,31.81,37.73,31.7c47.43-0.19,94.03-5.08,138.79-19.11
			c21.41-6.71,43.91-9.4,66.31-12.41c4.94-0.66,9.84-1.39,14.7-2.33c20.95-4.05,27.09-11.44,24.42-29.25
			c-0.45-3.02-0.97-6.03-0.62-9.08c0.9-6.81,2.95-13.69-1.94-20.1c-1.84-4.98,1.32-8.16,6.03-10.2
			c38.54-16.72,60.29-44.88,75.68-77.44c2.27-4.81,4.41-9.67,8.42-16.36c-27.68,37.14-63.09,63.27-109.53,78.47
			c-3.46,1.13-6.85,2.01-10.52,0.79c-4.97-2.85-4.92-8.04-7.87-11.85c-2.86-4.43-5.67-8.87-9.62-12.72
			c-1.54-1.53-2.9-3.18-4.23-4.83c-4.09-6.22-14.2-0.59-18.41-6.54c0.2-5.11,5.16-6.18,9.4-6.63c29.1-3.09,50.14-18.39,71.29-33.15
			c14.24-9.93,25.85-22.24,36.14-31.41c-4.83,3.33-11.34,10.19-22.88,8.72c-8.02-3.42-8.32-9.57-7.36-15.75
			c3.04-19.58,3.19-38.53-10.73-55.98c-5.46-6.84-3.63-14.52,1.16-21.67c9.63-14.38,25.5-23.49,40.27-33.46
			c4.89-3.3,11.33-2.7,16.87-0.25c12.78,5.66,24.83,12.41,36.89,19c7.57,4.14,13,10.75,10.01,19.52c-0.49,5.17,4.36,4.52,8.07,5.31
			c11.71,2.51,21.8,6.65,24.41,17.9c1.3,1.23,1.39,2.76,1.26,4.24c-1.23,13.87,1.88,25.03,15.48,35.79
			c8.79,6.96,5.9,20.59-2.46,30.41c-3.31,3.89-8.55,7.13-5.67,12.89c0.57,4.23,1.17,8.45,4.39,12.02c0.46,1.03,0.7,2.09,0.8,3.18
			c-2.97,7.78-4.68,16-11.86,22.28c-3.81,3.33-3.65,7.17-1.85,11.55c5.57,13.53,3.26,21.72-11.17,30.29
			c-9.2,5.46-9.27,9.11-0.87,14.28c7.76,10.8,6.91,21.43-0.88,31.91c-4.39,6.15-10.47,10.32-19.18,11.43
			c-9.06,1.16-13.53,5.6-13.09,13.3c0.18,3.08-1.17,5.96-1.23,9.01c-0.32,14.66-6.46,19.44-23.83,18.66
			c-1.36-0.06-2.71-0.18-4.04-0.4c-7.73-1.23-15.74-0.84-22.83,1.15c-11.53,3.24,0.49,11.56-3.81,16.77
			c-11.38,22.19-22.88,27.01-55.95,23.48c-7.22-2.77-12.69-3.15-16.31,4.76C831.07,625.99,828.78,630,825.08,632.81z"/>
		<path class="st2" d="M411.08,277.1c-1,6.45-4.89,11.43-11.06,15.26c-4.15,10.1-15.67,7.08-24.13,9.51
			c-37.3,2.49-73.92-0.63-107.64-14.54c-69.44-28.65-83.19-106.12-37.01-156.79c14.1-15.47,33.03-24.87,54.91-29.81
			c39.53-8.92,79.11-13.56,118.83,0.44c33.11,11.67,55.75,30.61,64.57,60.25c0.17,5.69,0.07,11.39,0.07,17.08
			c0,14.03-2.57,16.8-20.51,17.62c-33.6,1.52-66.39,7.54-99.54,11.55c-2.69,0.32-5.35,0.75-7.99,1.33
			c-5.66,1.24-8.47,3.58-3.49,7.77c7,5.88,12.57,12.96,20.99,17.63c8.97,4.69,13.56,13.82,24.29,16.73
			c7.86,4.31,14.62,9.77,21.74,14.83C409,268.73,413.99,271.57,411.08,277.1z"/>
		<path class="st3" d="M1011.55,322.67c5.69-2.1,7.65-5.64,7.28-10.89c-0.53-7.58-1.01-15.29,0.01-22.79
			c2.01-14.71,14.84-19.3,28.55-10.4c1.79-10.86,2.91-21.66,5.47-32.21c3.42-14.1,13.03-16.88,25.96-7.74
			c6.24,4.41,8.05,3.08,9-3.01c1.4-8.97,1.52-19.94,16.13-20.5c15.61-0.6,17.5,11.02,20.93,20.4c1.06,2.9,1.41,5.97,2.34,8.91
			c4.52,14.27,4.55,14.26,19.75,6.22c10.79-5.71,18.44-3.8,24.19,5.72c4.7,7.8,3.24,15.44,0.11,23.22
			c-2.53,6.28-4.93,11.02,6.79,14.43c12.61,3.67,7.38,14.94,6.99,23.23c-0.22,4.72-2.7,9.37-4.2,14.18
			c16.87,0.57,24.45,7.88,23.52,21.86c-0.44,6.62-3.09,12.64-7.26,18.18c-4.47,5.96-4.46,10.03,3.22,15.2
			c18.43,12.42,18.07,23.03,0,36.52c-4.34,3.24-0.48,4.77,0.83,6.47c5.3,6.88,5.41,14.23,4.22,21.96
			c-0.78,5.08-4.36,10.32-8.92,10.51c-16.44,0.7-13.36,10.08-13.64,18.44c-0.21,6.1,0.01,13.24-8.76,15.09
			c-8.69,1.83-18.17,2.69-24.2-5.57c-1.13-1.55-3.3-2.57-5-3.84c-16.36-9.29-17-23.92-17.56-38.11
			c-0.65-16.24-4.04-32.28-4.89-48.38c-1.07-20.25,2.2-40.52,6.93-59.65c-1.7,2.49,0.1,8.46-7.27,8.54
			c-9.2,0.09-19.54,2.52-24.65-9.85c1.36,21.65,0.06,40.93,3.3,60.04c-3.85,6.34-9.7,4.56-14.88,2.01
			c-20.91-10.3-42-20.44-59.93-34.41c-0.85-6.35-3.21-11.84-8.11-17.21C1010.84,341.63,1008.97,332.3,1011.55,322.67z"/>
		<path class="st4" d="M301.91,555.41c0.58-0.57,1.29-0.72,2.12-0.43c25.29-5.85,48.43-16.94,74.33-21.36
			c2.26-0.01,4.41-0.4,6.6-0.85c15.1-3.12,20.13,0.94,18.01,14.41c-1.03,1.86-2.69,3.21-4.89,4.08
			c-36.99,8.17-72.45,19.69-106.04,35.08c-19.9,9.12-39.41,18.9-58.69,28.85c-21.19,10.94-43.18,19.21-67.62,22.95
			c-2.79,0.49-5.62,0.47-8.44,0.55c-18.96-0.38-41.54-16.87-47.42-35.05c-2.02-6.23-3.67-12.53-6.91-18.42
			c-3.4-6.18-4.03-12.85-1.08-18.89c7.26-14.93,11.13-31.33,25.45-43.39c3-2.52,3.32-6.19,5.08-9.25c3.52-2.24,7.04-4.48,10.56-6.72
			c16.7-7.06,33.2-14.56,52.21-16.43c16.73-1.19,32.75,0.31,48.86,5.26c28.51,8.75,49.83,32.86,49.06,57.91
			c-0.06,1.96-0.8,3.71-2.56,5.37C294.44,558.14,297.78,555.8,301.91,555.41z"/>
		<path class="st5" d="M357.82,237.62c-12.02-6.38-21.03-15.37-30.02-24.37c-4.02-4.03-5.89-6.62,3.2-7.65
			c39.87-4.54,79.14-12.72,119.57-13.74c13.5-0.34,19.82-5.22,18.26-16.92c-0.59-4.44,0.42-9.04,0.71-13.54
			c3.67,6.5,1.2,13.36,1.77,20.03c0.32,3.78-3.82,8.92,2.93,10.84c5.53,1.58,11.79,1.55,16.56-2.39
			c9.97-8.23,21.09-15.51,29.45-25.06c22-15.04,40.15-33.94,65.36-45.77l0.02-0.02c5.89-3.71,11.8-7.38,19.02-9.14
			c29.29-18.59,60.66-11.56,90.48-2.96c40.41,11.64,80.57,24.4,116.78,44.14c5.46,1.69,11.06,3.04,15.52,6.54
			c19,14.89,42.38,12.22,64,8.25c15.99-2.94,33.15-2.61,48.15-9.35c1.79,0.08,3.58,0.05,5.34,0.18c7.21,0.53,15.83-1.77,19.88,5.77
			c3.86,7.17-0.5,12.91-5.64,18.31c-6.84,5.25-15.64,5.85-24.11,6.24c-24.41,1.11-48.7,2.95-72.56,7.49
			c-14.21,2.71-27.18,0.66-38.71-6.31c-26.63-16.1-56.68-26.69-86.14-38.25c-28.37-13.3-58.55-21.88-91.29-20.36
			c-18.37,0.86-32.96,11.26-48.67,18.41c-1.47,1.1-2.98,2.16-4.69,2.98c-10.03,3.97-18.53,9.74-26.63,15.98
			c-9.39,8.27-22.33,13.23-30.21,22.9c-3.9,2.23-6.34,5.67-9.81,8.25c-1.67,1.3-3.03,2.85-4.24,4.41
			c-14.83,19.08-36.74,22.52-62.07,21.75c-28.78-0.88-57.4,2.83-85.92,6.09C367.67,231.11,361.94,233.13,357.82,237.62z"/>
		<path class="st6" d="M1044.8,71.65c16.21-2.26,32.55-1.04,48.8-0.87c19.52,0.2,24.5,8.63,13.98,22.99
			c-18.26,24.92-37.89,49.17-62.05,70.31c-24.61,21.52-49.01,43.33-76.45,62.45c-3.79,2.64-8.15,4.7-12.25,7.03
			c-13.79,4.08-20.29,0.1-20.87-12.75c0.46-1.1,1.15-2.11,1.99-3.03c7-8.01,17.12-14.81,14.71-26.52c0.93-4.24,3.63-7.35,8.34-9.15
			c1.31-0.25,2.63-0.23,3.92,0.07c3.24,2.07,6.01,2.37,9.39-0.38c32.81-26.78,65.03-54.03,93.4-84.23
			c4.87-5.18,13.11-11.72,9.84-17.67c-3.2-5.82-14.02-1.7-21.39-2.67c-3.13-0.41-6.34-0.35-9.26-1.61
			C1045.25,74.65,1043.69,73.64,1044.8,71.65z"/>
		<path class="st7" d="M973.29,292.32c-5.35-10.24-11.91-18.77-26.22-22.48c-8.05-2.09-14.54-8.28-21.9-12.41
			c-4.38-2.46-9.5-3.58-13.87-0.41c-14.58,10.62-30.14,20.53-39.73,35.11c-3.59,5.45-3.51,11,1.11,15.97
			c15.9,17.13,14.5,36.61,11.18,56.36c-0.95,5.64-2.91,11.43,4.88,15.05c-4.56,12.36-18.74,14.46-29.96,19.73
			c-4.95,0.41-10.12,2.49-14.58-1.22c-2.1-4.89,1.08-8.87,3.57-12.79c17.9-28.16,16.43-56.56,1.89-85.2
			c-2.44-4.8-6.36-9.31-4.39-15.01c18.6-10.35,36.36-21.63,53.61-33.55c8.97-6.2,14.44-15.56,25.72-19.59
			c12.91,0.68,13.98,1.88,14.19,15.78c-0.45,7.51,5.11,9.51,12.66,9.52c5.75,0.01,11.63-0.51,15.87,3.82
			C982.04,271.66,981.33,283.57,973.29,292.32z"/>
		<path class="st8" d="M1215.94,575.79c12.17,12.4,12.93,27.28,12.17,42.14c-2.36,46.54-40.94,90.17-95.4,99.53
			c-43.91,7.54-87.7,2.19-121.75-27.26c0.46-0.42,0.93-0.84,1.39-1.27c7.82-2.79,13.12,1.52,18.25,5.02
			c11.93,8.14,25.4,11.37,40.57,10.44c8.18-0.5,16.3,0.75,24.42,0.98c36.77,1.04,69.52-9.76,94.47-31.27
			c26.06-22.46,31.64-51.32,21.93-81.78c-1.77-5.55-3.97-11.01,0.19-16.48C1213.43,574.96,1214.68,574.95,1215.94,575.79z"/>
		<path class="st9" d="M1098.17,399.81c-4.05-12.9-5.7-26-5.3-39.36c0.22-7.53,0.95-15.15-1.99-22.59
			c-0.84-2.13-2.24-5.74,2.25-6.62c3.14-0.61,6.31,0.54,7.69,3.47c1.16,2.47,2.09,5.02,3.3,7.47c2.23,4.52,6.02,6.62,9.7,1.68
			c6.55-8.78,5.95,1.7,9.82,2.26c4.57-5.15,5.96-10.95,2.42-17.87c1.64,0.13,3.28,0.26,4.92,0.38c0,10.62,2.13,21.61-0.38,31.79
			c-9.07,36.82,2.15,72.95,3.27,109.38c0.23,7.4,9.94,9.78,10.97,16.47c-2.96-1.59-5.92-3.18-9.12-4.9c-3.51,4-0.41,8.39-2,12.21
			c-9.53-2.3-7.39-8.98-7.91-14.66c0.59-2.95,2.08-6.12,0.55-8.92c-8.12-14.83-4.18-31.38-9.9-46.6
			c-3.29-8.76-0.55-18.01-0.39-27.05c0.1-5.36,0.08-11.09-2.86-16.61c-6.57,3.06-5.85,7.88-6.84,12.17
			c-0.98,4.27-0.45,9.42-7.49,10.8C1097.38,401.95,1097.15,400.99,1098.17,399.81z"/>
		<path class="st10" d="M132.4,513.68c2.6,6.09-2.64,9.82-4.95,14.82c-9.15,19.81-31.12,36.5-17.01,62.51
			c7.09,13.06,11.74,26.06,24.65,36.43c6.77,5.44,12.93,8.86,22.15,8.09c-6.8,8.03-19.13,8.68-27.54,1.03
			c-4.54-4.13-9.51-7.95-13.55-12.46C82.62,587.01,91.6,541.91,132.4,513.68z"/>
		<path class="st11" d="M1011.55,322.67c1.37,1.85,4.14,2.85,4.1,5.57c-0.13,9.3,2.39,17.77,9.99,25.07
			c3.43,3.3,1.55,8.01,2.06,12.09c5,4.73,5.54,10.51,5.54,16.42c-4.06,11.64-3.94,23.53-4.92,35.53
			c-1.3,16.03-3.28,32.68-11.43,47.91c-3.06,1.11-5.99,1.05-8.72-0.69c-3.49-15.68-0.97-30.6,8.03-44.71c1.28-2,2.56-4.01,0.35-6.16
			c-0.15-0.7-0.21-1.41-0.19-2.13c-4.07-3.01-0.85-8.63-5.76-11.34c-7.18-4.57-4.87-8.66,0.59-12.98
			c18.16-14.38,15.44-30.26-7.13-39.84c-5.37-2.28-6.15-4.58-4.09-8.84c3.56-7.37,5.83-15.02,5.8-23.05
			C1007.7,317.91,1009.62,320.29,1011.55,322.67z"/>
		<path class="st12" d="M1130.73,477.81c0.89,5.27-1.35,10.96,2.98,15.77c0.9,7.08,2.73,14.19,2.46,21.23
			c-0.29,7.31,3.45,10.9,11.14,12.67c-1.5,2.58-4.33,3.28-7.38,3.68c-11.81-2.44-23.62,2.19-35.44,0.06
			c-3.34-6.7,4.13-11.89,3.6-18.22c-0.24-12.1,1.55-24.28-2.65-36.17c-0.52-1.46-0.25-3.03-0.18-4.55
			c0.21-4.49-0.79-9.94,6.33-11.14c5.96-1.01,10.38,2.32,13.5,6.29C1127.58,470.61,1128.8,474.37,1130.73,477.81z"/>
		<path class="st13" d="M1044.8,71.65c0.89,0.73,1.77,1.46,2.66,2.19c1.51,7.96-0.3,13.14-12,10.09
			c-5.99-4.52-11.05-0.58-15.95,1.58c-16.8,7.4-25.11,21.49-35.25,33.67c-7.33,8.8-13.57,18.54-20.47,28.17
			c6.11,0.67,12.24-5.3,17.4,0.86c5.39,16.5,1.41,25.68-13.3,30.79c-4.07-2.53-2.84-5.77-2.06-9.19
			c2.39-10.48,1.41-11.43-11.65-11.93c-7.24-0.28-15.96,0.9-11.95-9.37c0.97-0.91,1.95-1.82,2.92-2.73
			c3.41-2.18,5.76-5.15,8.49-7.84c15.66-17.56,32.34-34.4,46.01-53.27C1009.59,70.94,1028.13,72.17,1044.8,71.65z"/>
		<path class="st14" d="M345.58,621.57c-0.17,0.74-0.01,1.78-0.55,2.18c-31.68,23.49-55.75,56.1-102.91,61.1
			c-10.41,1.1-21.95,2.61-27.66-8.3c7.03-6.33,16.39-4,24.27-3.27c20.2,1.85,33.79-5.53,46.69-17.61
			c15.01-14.06,34.13-24.49,51.98-35.97C340.54,619.05,343.29,619.62,345.58,621.57z"/>
		<path class="st15" d="M301.91,555.41c-4.69,8.47-15.25,6.1-24.44,9.05c19.17-5.89,7.61-16.92,8.14-25.77
			c0.67-11.25-8.8-16.83-16.6-24.4c-19.79-19.19-44.84-23.51-72.83-22.59c-4.14,0.96-8.27,1.69-12.2-0.58
			c40.71-8.07,83.02,4.76,106.27,32.57c5.49,6.56,8.19,14.22,8.59,22.29C298.99,549.36,298.34,552.84,301.91,555.41z"/>
		<path class="st16" d="M337.83,622.06c-21.27,15.68-42.85,31.07-63.64,47.18c-7.71,5.97-15.9,7.85-25.82,7.54
			c-11.29-0.36-22.6-0.18-33.91-0.23c-1.7-0.12-3.39-0.24-5.09-0.36c-6.52-2.05-16.79,0.16-16.22-9.99
			c2.24-1.54,4.85-1.97,7.66-1.85c31.58,5.92,61.85,7.68,85.56-16.23c8.67-8.75,19.55-15.73,30.16-22.83
			c5.31-3.55,10.67-7.24,18.31-5.61C336.22,620.15,337.21,620.94,337.83,622.06z"/>
		<path class="st17" d="M400.06,548.56c0.07-14.8,0.07-14.8-23.48-13.54c-1.63,1.07-2.74,0.78-3.35-0.88
			c18.25-2.58,9.5-10.41,4.82-17.44c-1.31-1.69-1.58-3.37,0.08-5.03c5.14,8.69,14.54,13.55,24.37,17.24
			c6.51,2.44,9.3,5.3,8.52,11.05c-2.15,15.83,1.34,29.54,20.23,37.49c0.76,0.32,0.66,2.09,0.96,3.18
			C410.74,583.13,393.7,566.15,400.06,548.56z"/>
		<path class="st18" d="M1010.97,690.2c-18.73-14.19-27.85-33.82-41.16-51.07c-3.4-4.41-6.03-9.23-10.58-12.97
			c-2.27-1.48-4.92-2.86-2.14-5.67c17.83-3.26,26.81,8.2,31.87,17.78c7.47,14.14,15.34,28.12,23.16,42.12
			c1.55,2.77,2.16,5.82,0.14,8.76C1011.85,689.5,1011.41,689.85,1010.97,690.2z"/>
		<path class="st19" d="M936.84,159.73c-19.37,5.26-39.78,6.59-59.35,10.93c-17.16,3.81-32.05,0.91-45.96-7.6
			c-6.53-4-13.08-7.99-19.61-11.98c7.54-1.37,13.24,2.19,18.42,5.62c19.23,12.74,41.11,8.46,62.11,6.28
			c6.77-0.7,13.81-3.63,20.87-2.85c10.35,1.14,15.99-5.71,23.95-8.52C939.66,154.41,939.59,157.12,936.84,159.73z"/>
		<path class="st20" d="M375.89,301.87c8.9-1.64,16.19-6.15,24.13-9.51c-3.69,12.04-6.75,23.73,3.61,35.16
			c3.49,3.85-3.62,5.21-6.82,6.52c-7.9,3.23-14.18,7.23-18.69,14.06c-5.44,8.23-4.38,15.59,2.01,22.01
			c9.65,9.7,3.14,11.18-7.14,11.65c4.75-3.03,4.96-5.78,1.53-10.38c-11.06-14.83-6.16-29.24,12.73-36.71
			c9.26-3.66,13.26-7.24,6.43-15.08c-1.27-1.46-2.56-3.68-2.18-5.26C394.25,303,385.54,302.1,375.89,301.87z"/>
		<path class="st14" d="M192.48,668.07c5.63,2.71,11.26,5.41,16.89,8.12c-4.05-0.19-8.56,0.54-12.06-0.71
			c-19.64-7.05-41.5-10.22-58.02-22.82c-5.58-4.25-13.07-7.51-11.47-15.49c11.32,1.67,20.13,7.39,29,12.87
			c3.63,2.24,7.05,4.52,11.68,4.98c4.17,1.1,7.83,3.08,11.64,4.79c3.45,2.12,7.51,3.4,10.99,5.49
			C192,666.08,192.46,667,192.48,668.07z"/>
		<path class="st21" d="M926.54,601.03c-2.2-1.55-4.41-3.1-6.61-4.65c-2.61-1.98-6.43-0.48-9.14-2.21
			c-5.26-3.25-7.83-7.54-4.66-12.59c2.83-4.51,8.55-3.67,13.25-2.79c15.6,2.93,28.49-3.21,41.78-8.17
			c7.77,6.32,2.66,10.76-3.49,14.5c-8.69,5.29-18.49,9.34-25.58,16.39C930.13,602.31,928.25,602.35,926.54,601.03z"/>
		<path class="st22" d="M375.3,425.34c3.87,0.1,8.89,1.24,5.65,4.86c-13.94,15.59-8.63,31.52-2.77,47.67
			c-4.72,2.97-7.25-1.33-10.79-2.28c-11.17-14.37-6.59-28.1,2.42-41.65C373.18,431.76,371.93,427.52,375.3,425.34z"/>
		<path class="st23" d="M629.38,658.05c15.16,0.11,25.47-6.42,32.27-17.13c6.18-9.73,11.51-6.81,16.62,0.43
			c4.15,5.87,8.16,11.79,14.09,16.59c-3.56-0.11-9.08,0.98-10.37-0.5c-9.92-11.45-18.04-5.74-28.59-0.2
			C647.2,660.49,637.61,663.5,629.38,658.05z"/>
		<path class="st16" d="M345.58,621.57c-2.58,0.16-5.17,0.32-7.75,0.48c-0.34-0.38-0.69-0.75-1.04-1.13
			c-0.65-3.87,2.05-6.54,5.15-8.68c19.16-13.21,40.4-23.47,63.63-30.82c5.59-1.36,11.25-3.02,15.64,2.04
			C395.73,595.79,367.84,604.76,345.58,621.57z"/>
		<path class="st24" d="M168.24,657.86c-11.16,0.45-17.63-6.64-25.22-11.52c-4.97-3.2-9.4-6.96-15.21-9.18
			c-3.35-4.69-10.5-7.01-11.67-13.07c5.68,1.83,8.44,6.43,12.84,9.46c8.87,6.11,18.35,6.22,28.25,1.97
			c2.72-0.13,5.45-0.25,8.18-0.38c3.65-1.61,7.92-0.19,5.31,2.51C164.23,644.4,168.56,651.15,168.24,657.86z"/>
		<path class="st25" d="M1139.16,528.12c2.72-0.21,5.45-0.42,8.16-0.63c24.24,5.64,42.45,18.78,59.28,33.58
			c4.71,4.14,7.76,9.13,9.33,14.72c-1.03,0.05-2.06,0.09-3.1,0.14c-7.3,0.29-12.44-3.32-15.45-7.94
			c-10.27-15.74-28.14-23.1-45.92-30.8C1146.56,535.07,1139.73,534.49,1139.16,528.12z"/>
		<path class="st26" d="M936.84,159.73c-2.49-2.81-2-5.51,0.44-8.12c1.66-1.04,3.31-2.08,4.97-3.12c0.57,7.95,7.63,6.89,13.87,7.04
			c19.2,0.46,20.17,1.86,12.49,17.18c-0.84,1.67-0.73,3.67-1.06,5.52c2.12,3.01,1.08,4.86-2.95,5.59c-0.77-0.25-1.55-0.49-2.34-0.7
			c-2.16-0.03-5.18,1.66-5.57-1.94C962.94,160.71,962.94,160.71,936.84,159.73z"/>
		<path class="st27" d="M825.08,632.81c1.6-4.25,3.47-8.45,4.73-12.77c3.79-12.91,3.69-12.93,18.1-5.77
			c12.01,6.9,25.11,2.12,37.74,2.46c-4.45,7.01-12.59,5.4-19.28,4.84C850.4,620.24,836.1,621.95,825.08,632.81z"/>
		<path class="st28" d="M421.22,583.46c-5.62-2.25-10.65,1-16,1.21c-5.15-3.57-8.9-7.8-9.3-13.64c-2.74-7.27-8.97-14.36-1.57-22.13
			c1.91-0.11,3.81-0.23,5.72-0.34c2.28,8.03,5.45,15.75,10.85,22.75c5.03,6.53,11.5,10.57,21.33,9.31c0.29,0.72,0.1,1.33-0.6,1.83
			C428.16,582.79,424.69,583.13,421.22,583.46z"/>
		<path class="st29" d="M585.6,119.06c-21.04,16-42.37,31.72-65.36,45.77C540.22,147.76,556.81,127.3,585.6,119.06z"/>
		<path class="st30" d="M935.28,248.6c-1.98-5.79,4.4-16.71-11.96-13.67c-0.33-9.47,4.54-15.15,16.37-15.76
			c-3.32,12.35,6.9,13.37,17.14,14.38c-0.38,1.44-0.76,2.87-1.14,4.3C947.72,239.87,946.22,250.53,935.28,248.6z"/>
		<path class="st31" d="M481.74,621.39c1.49-0.77,2.91-1.67,4.49-2.28c7.26-2.79,14.82-8.07,21.79-7.58
			c8.47,0.59,3.12,11.15,8.88,15.48c5.62,4.23,11.13,8.56,16.69,12.84c-4.69,0.49-9.78,0.42-12.23-3.25
			C512.48,623.3,498.85,619.33,481.74,621.39z"/>
		<path class="st32" d="M935.28,248.6c6.61-3.85,10.28-11.62,20.43-10.76c-1.53,2.3-2.95,4.66-4.6,6.89
			c-5.04,6.82-6.7,12.05,6.7,11.3c4.33-0.24,8.08,1,9.5,4.98c-11.46-3.53-23.58-1.91-35.22-2.83
			C930.32,254.06,934.42,251.74,935.28,248.6z"/>
		<path class="st33" d="M885.65,616.73c-12.83,1.85-25.86,5.86-37.74-2.46c32.95,3.84,44.91-0.73,53.89-20.59
			c3.56-4.58,7.37-1.31,11.11-0.25c2.3,1.05,5.56,0.51,7.02,2.94c-8.76-1.05-15.52,0.02-18.6,8.58
			C899.16,610.98,892.62,614.4,885.65,616.73z"/>
		<path class="st34" d="M367.39,475.59c3.6,0.76,7.19,1.52,10.79,2.28c4.97,2.6,8.91,5.35,4.36,10.8
			c-5.87,7.02-5.02,15.06-4.38,23.01c-0.03,1.67-0.06,3.35-0.09,5.03c-7.72-4.25-6.49-11.03-4.36-16.36
			C377.59,490.59,375.32,482.8,367.39,475.59z"/>
		<path class="st15" d="M373.24,534.14c1.11,0.29,2.22,0.59,3.34,0.88c-21.54,6.53-43.07,13.12-64.68,19.52
			c-2.39,0.71-5.24,0.32-7.87,0.44C326.39,546.38,348.89,538.09,373.24,534.14z"/>
		<path class="st10" d="M183.97,491.11c4.06,0.19,8.12,0.39,12.19,0.58c-18.78,2.54-34.6,12.3-53.2,15.27
			C154.45,497.72,168.57,493.27,183.97,491.11z"/>
		<path class="st35" d="M926.54,601.03c1.79,0.04,3.58,0.08,5.37,0.11c0.62-0.01,1.24-0.01,1.87-0.02
			c7.43,2.83,12.62,8.26,19.55,11.7c2.55,2.48,5.26,4.92,3.63,8.63c0.76,1.57,1.52,3.13,2.28,4.7
			C945.78,620.11,933.2,613.27,926.54,601.03z"/>
		<path class="st36" d="M751.59,644.24c4.3-14.48,4.96-14.73,18.67-6.89c3.99,2.28,7.98,4.56,11.97,6.84
			c-4.1,0.73-8.14,0.44-11.53-1.63C763.6,638.22,757.48,639.9,751.59,644.24z"/>
		<path class="st37" d="M375.3,425.34c4.53,5.71-1.07,6.89-5.49,8.59c0.05-5.55-5.66-8.74-7.81-13.39
			C366.43,422.14,370.86,423.74,375.3,425.34z"/>
		<path class="st28" d="M435.6,583.56c14.74-0.9,15.27-0.14,12.93,18.42c-2.57-2.14-2.04-5-1.55-7.34
			C448.61,586.8,443.42,584.34,435.6,583.56z"/>
		<path class="st29" d="M604.65,109.9c-5.75,3.91-11.15,8.33-19.02,9.14C590.06,113.21,595.22,108.44,604.65,109.9z"/>
		<path class="st26" d="M953.65,137.93c-0.75,4.2-3.77,6.67-8.49,7.85C946.78,142.24,949.93,139.87,953.65,137.93z"/>
		<path class="st38" d="M939.69,219.17c-6.84,4.24-11.04,10.41-16.37,15.76c-17.96,20.43-43.63,33.47-66.79,48.93
			c-3.24,2.16-5.87,0.74-8.81,0.19c-6.27-0.46-9.17-4.52-12.24-8.24c-5.43-6.59-11.98-12.4-18.02-18.57
			c-19.79-20.19-46.7-21.01-74.62-19.01c-32.5,2.32-65.09,3.63-97.58,6.22c-43.36,3.45-84.96,11.58-123.92,28.24
			c-10.83,4.63-17.37,11.84-20.02,21.76c-1.46,5.44-1.8,11.52-8.99,14.54c-6.6,5.2-12.31,1.65-17.71-1.54
			c-17.53-10.37-38.56-15.99-54.63-28.4c-1.99-1.54-5.9-1.34-8.91-1.94c-6.15-11.39-21.84-14-30.39-23.19
			c-1.05-1.24,0.27,0.3-0.57-1.03c-3.52-5.59-13.83-9.23-8.11-17.53c5.35-7.77,15.16-7.2,24.06-7.81c30.61-2.1,61.3-3.28,91.97-4.51
			c6.26-0.25,11.58-1.84,15.77-5.6c11.28-10.1,23.75-19.25,34.47-29.76c8.94-8.77,20.07-15.34,30.97-21.89
			c11.32-6.8,23.66-12.37,32.85-21.45c7.8-2.01,15.06-4.68,22.04-8.48c19.06-10.37,40.14-7.55,60.53-4.2
			c18.53,3.04,36.28,8.85,53.93,14.56c27.12,9.14,54.12,18.68,77.8,33.26c16.25,10.01,32.88,14.45,52.96,9.86
			c28.52-6.52,58.12-6.15,87.33-8.15c1.86,0.65,3.71,1.29,5.57,1.94c-1.88,3.07-3.76,6.14-5.64,9.21
			c-4.39,9.46-9.57,18.56-16.82,26.75L939.69,219.17z"/>
		<path class="st39" d="M492.33,308.98c1.22-25.66,17.74-40.21,46.25-48.39c25.82-7.4,51.38-15.06,78.59-17.73
			c46.46-4.55,93.05-7.35,139.79-9.39c38.1-1.66,62.33,13.37,81.62,37.88c3.24,4.12,6.09,8.45,9.13,12.68
			c3.94,11.87,11.1,22.65,14.65,34.84c8.38,28.8,2.32,54.59-17.51,78.6c-1.76,8.26-10.45,8.37-17.48,10.42
			c-17.46,5.09-32.43,3.9-47.2-7.55c-19.57-15.18-26.34-14.64-49.26-3.13c-3.1,1.56-6.23,3.06-9.26,4.73
			c-10.15,5.6-20.01,8.68-32.78,3.75c-19.45-7.51-37.07-3.16-51.84,9.62c-4.41,3.81-9.55,7.14-13.24,11.41
			c-7.56,8.76-17.43,14.05-30.06,15.96c-10.7,1.29-21.46,0.96-32.16,0.51c-8.16-0.35-16.2-1.64-19.91-9.13
			c-11.11-8.59-24.93-14.2-34.51-24.74c-11.16-12.27-16.52-25.17-17.34-40.56C488.74,348.71,490.49,328.88,492.33,308.98z"/>
		<path class="st40" d="M868.99,523.95c8.12,30.52-1.85,41.46-43.15,45.17c-35.9,3.22-68.93,15.21-103.52,22.3
			c-36.11,7.4-72.93,11.08-110.19,9.27c-23.07-1.12-32.88-9.86-34.35-29.42c-0.48-6.43,0.55-12.96-0.29-19.34
			c-1.54-11.77,3.85-17.04,18.12-15.36c4.96-4.39,11.45-4.44,17.77-3.84c53.65,5.14,105.53-3.35,157.21-13.84
			c18.96-3.84,37.56-8.78,56.52-12.53c6.38-0.14,12.71-0.54,18.38-3.47c1.34-0.5,2.73-0.77,4.18-0.87
			c11.06-0.35,16.17,4.63,16.8,13.39C866.69,518.42,867.47,521.25,868.99,523.95z"/>
		<path class="st41" d="M541.66,434.06c17.25,7.8,35.82,4.54,54.01,4.53c13.54,0.54,22.51-5.22,30.32-13.99
			c17.68-19.87,41.76-23.79,69.07-17.57c7.59,1.73,14.22,0.14,20.99-2.26c5.06-1.79,9.36-4.63,13.85-7.12
			c27.2-15.06,34.11-8.9,52.84,3.51c16.58,10.98,38.88,13.27,57.01,3.44c6.09-3.3,13.06-5.13,18.69-8.97
			c10.1-5.38,20.2-10.75,30.3-16.12c11.3-4.87,21.19-11.36,30.31-19.01c3.98,4.1-0.02,6.71-2.13,9.02
			c-25.01,27.44-54.65,50.31-91.53,66.49c-10.32,4.53-22.63,0.86-31.84,7.35c-3.33,7.54-12.62,5.04-18.77,7.82
			c-4.55-0.19-8.42,1.67-12.5,2.93c-27.92,6.4-56.49,9.88-85.1,13.11c-4.07,0.46-8.01,1.05-11.9,2.08
			c-6.74,0.16-13.44,0.52-19.69,2.99c-18.51,4.28-37.44,3-56.28,2.97c-1.49,0.06-2.99,0.11-4.48,0.16
			c-4.15-8.31-13.84-7.54-21.84-8.91c-39.98-6.84-78.16-17.95-114.86-32.78c-2.37-0.96-4.85-1.88-5.68-5.19
			c9.39-0.99,16.87,3.12,24.88,4.56c20.39,3.66,40.82,6.39,61.75,5.66C534.1,438.59,539.25,438.99,541.66,434.06z"/>
		<path class="st42" d="M831.28,509.79c-61.41,16.03-123.64,28.57-188.36,29.46c-15.73,0.22-31.51-1.72-47.28-2.67
			c-37.12-7.14-72.87-17.43-107.47-30.82c-27.17-10.52-51.89-23.97-74.66-40.63c55.92,18.43,110.6,39.75,171.97,41.46
			c1.45,0.09,2.86,0.36,4.22,0.79c27.43,2.47,54.95,0.4,82.41,1.17c5.7,0.16,7.79-2.9,10.34-5.98c13.96-5.76,29.66-5.26,44.41-8.48
			c22.25-4.86,45.36-6.91,67.37-12.93c12.37-1.26,23.82-8.61,37.08-3.94c36.77-10.29,68.75-26.58,93.16-52.28
			c10.52-11.07,22.03-21.54,29.39-35.21c3.6,3.87,3.05,7.16,2.05,9.76c-15.55,40.53-36.64,77.72-85.77,97.61
			c-2.82,1.14-5.88,2.25-6.41,5.38c-4.54,4.41-11.41-1.01-16.12,2.67l-0.09,0.07C842.38,507.41,836.49,507.77,831.28,509.79z"/>
		<path class="st43" d="M795.62,484.35c-30.92,10.84-64.32,12.27-96.62,17.85c-5.3,0.91-10.61,1.76-15.92,2.64
			c-6.67,5.87-14.49,3.83-22.22,2.31c-1.24-0.65-2.1-1.59-2.54-2.76c9.07-8.96,22.56-8.89,34.61-11.65
			c3.84-0.88,8.02-0.16,14.02-0.43c-8.31-1.96-16.18,2.35-21.67-3.27c-0.89-1.57-0.97-3.17-0.34-4.81
			c4.26-6.29,12.02-5.63,18.94-6.65c2.7-0.4,5.73-0.86,5.23-3.88c-0.36-2.15-3.02-2.66-5.26-2.79c-8.06-0.45-16.1-0.62-24.09,0.92
			c-5.66,1.09-11.61,2.48-15.83-2.72c-0.42-1.12-0.25-2.16,0.59-3.11c33.22-4.86,66.56-9.2,99.28-16.2
			c2.87-1.67,6.64,1.27,9.34-1.28c5.61-5.03,14.5-0.95,20.41-5.15c6.83,1.62,16.39-5.29,20.54,4.62c-3.3,3.94-8.54,3.62-13.32,4.1
			c-5.47,0.54-10.42,1.57-13.52,7.05c12.4,3.82,20.48-3.97,30.09-6.3c5.63,3.36,8.59,8.16,10.41,13.57
			c-1.67,5.26-7.08,7.34-12.19,6.96C804.87,472.58,799.21,476.81,795.62,484.35z"/>
		<path class="st44" d="M912.92,593.43c-3.7,0.08-7.4,0.17-11.11,0.25c-0.68-2.96-1.42-5.9-2.03-8.87
			c-1.25-6.05,0.49-10.02,8.78-11.56c9.45-1.76,18.42-2.24,28.05-0.51c12.67,2.28,18.58-2.72,17.7-13.49
			c-1.31-16.22,3.67-22.49,22.31-27.44c5.59-1.48,8.92-4.92,12.37-8.42c3.46,0.89,5.88,3.29,9.19,4.42c2.01,1.48,3.6,3.08,2.08,5.49
			c-8.63,6.06-20.3,5.35-29.77,9.44c-3.3,2.29-1.88,5.33-1.85,8.15c-0.19,5.83,1.19,11.73-1.27,17.43
			c-1.23,1.68-2.97,2.71-5.31,3.02c-11.68,9.06-24.73,14.56-41.34,11.88c-3.77-0.61-8.64-3.71-11.35-0.88
			C905.59,586.31,910.89,589.86,912.92,593.43z"/>
		<path class="st45" d="M585.47,506.58c-2.5-5.77-4.19-11.53,0.39-17.19c4.94-4.68,11.73-4.42,17.75-3.35
			c12.6,2.23,25.25,1.65,37.91,1.96c14.09,0.35,16.04,2.36,14.89,14.55c-0.37,1.42-1.16,2.65-2.36,3.7
			c-10.03,4.44-21.28,0.64-31.6,3.26c-12.25-0.82-24.84,2.38-36.78-2.15L585.47,506.58z"/>
		<path class="st46" d="M653.93,505.17c1.62-11.56-4.65-14.74-18.03-14.24c-16.62,0.62-33.36-0.93-50.05-1.54
			c-0.34-4.66-0.69-9.32-1.03-13.97c0.35-0.73,0.71-1.47,1.07-2.2c13.07,12.37,30.52,9.1,46.96,9.05
			c15.62-0.05,16.15-0.83,12.32-13.93c6.13-2.65,12.74-2.43,19.34-2.33c-0.05,0.77-0.1,1.54-0.15,2.31
			c-1.36,12.42-1.36,12.43,12.67,13.03c3.58,0.15,7.16,0.26,9.24,3.32c0.01,1.44,0.02,2.88,0.03,4.32
			c-7.99,5.95-21.62,4.18-26.96,13.77c-0.06,0.8-0.12,1.59-0.18,2.39C657.42,506.27,655.68,506.27,653.93,505.17z"/>
		<path class="st47" d="M1016.55,413.7c2.67,2.06,3.36,4.86,1.93,7.29c-7.96,13.6-6.71,28.63-9.86,42.96
			c3.87,4.78,1.44,8.81-2.11,12.71c-7.88,3.98-15.62,8.08-17,16.73c-11.41-7.85-11.26-10.32,1.05-16.58
			c13.69-6.97,17.8-17.78,9.63-29.37c-4.06-5.77-3.79-8.91,2.94-12.37C1012.5,430.26,1010.72,420.24,1016.55,413.7z"/>
		<path class="st48" d="M817.34,452.85c-4.33,7.01-21.76,14.42-30.31,13.09c-3.91-0.61-4.66-3.11-5.86-5.56
			c-1.67-3.42,0.01-5.46,3.13-7.73c8.95-6.53,19.6-4.34,29.79-4.65C815.17,449.61,816.25,451.23,817.34,452.85z"/>
		<path class="st49" d="M795.62,484.35c-1.16-14.25-1.16-13.88,15.56-14.03c5.54-0.05,11.04-2.54,16.56-3.91
			c3.47,3.08,6.86,6.17,3.56,10.81C819.48,479.84,808.23,484.49,795.62,484.35z"/>
		<path class="st50" d="M989.51,493.39c-9.81-13.72,5.89-13.89,13.79-18.2c-2.54,18.18,8.15,37.83-8.64,54.43
			c-6.36,0.79-5.04-3.34-5.68-6.22C996.36,513.49,998.27,503.5,989.51,493.39z"/>
		<path class="st51" d="M847.62,505.15c4.54-4.4,10.63-2.25,16.12-2.67c10.24,5.69,4.06,14.21,5.26,21.46
			c-4.15-2.32-4.72-6.12-5.82-9.73C861.12,507.47,856.18,504.11,847.62,505.15z"/>
		<path class="st47" d="M1010.6,400.23c6.75,2.06,6.34,6.67,5.76,11.34C1009.14,409.68,1011.98,404.21,1010.6,400.23z"/>
		<path class="st52" d="M602.18,146.56c-4.01,7.13-10.39,11.97-18.73,15.82c-17.09,7.88-30.3,19.85-44.97,30.36
			c-17.13,12.27-27.77,32.38-54.02,34.82c-3.14,0.29-6.29,1.17-9.38,1.01c-26.78-1.43-53.27,2.91-80.02,2.52
			c-20.2-0.29-22.44,3.1-14.7,18.34c0.66,1.3,0.25,2.99,0.33,4.5c-9.64-3.44-16.28-9.84-22.86-16.29
			c-5.76-9.55,3.91-9.98,10.06-10.57c36.3-3.44,72.48-9.16,109.18-7.34c15.15,0.75,25.88-3.12,34.47-13.34
			c3.8-4.52,9.33-8.02,14.08-11.98c3.34-1.87,6.44-3.91,7.97-7.18c7.44-9.78,19.5-15.34,29.57-22.72c10.23-4.33,20-9.18,27.66-16.52
			c0.86-0.56,1.72-1.12,2.58-1.68C596.38,145.02,599.33,144.53,602.18,146.56z"/>
		<path class="st53" d="M1030.22,381.75c-4.77-5.02-2.19-10.84-2.52-16.35c22.01,9.91,40.83,24.06,63.36,33.32
			c2.49,1.02,4.3,2.58,7.11,1.09c0.08,0.8,0.17,1.59,0.25,2.39c0.2,12.31,4.57,23.86,8.66,35.53c1.89,5.39,2.12,11.21-4.61,15.14
			c-6.13,1.23-8.63-2.69-9.41-6.11c-6.54-28.6-32.82-43.72-57.55-59.94C1033.32,385.38,1031.66,383.67,1030.22,381.75z"/>
		<path class="st54" d="M394.34,548.9c-2.41,8.06,6.46,14.29,5.13,22.17c-2.42,2.98-5.98,4.61-9.89,5.77
			c-31.47,9.4-59.43,24.51-88.35,38.05c-20.78,9.73-37.54,23.95-56.36,35.88c-13.17,8.35-26.68,15.89-44.01,16.25
			c-2.79,0.35-5.59,0.7-8.38,1.04c-0.8-0.33-1.6-0.66-2.41-0.97c-3.27-2.27-7.34-3.05-11.2-4.23c-4.93,0.38-7.09-3.33-10.62-5.02
			c-8.44-6.94-13.88-13.89-0.11-20.93c0.1-0.05-0.06-0.82-0.31-0.94c-0.74-0.36-1.6-0.57-2.41-0.84
			c43.13-9.16,78.27-31.39,116.32-49.06C317.11,569.67,353.7,554.68,394.34,548.9z"/>
		<path class="st55" d="M220.72,586.99c-21.04,9.3-44.03,5.26-57.68-10.04c-10.07-11.3-6.53-33.24,7.08-45.08
			c7.96-6.92,16.41-12.95,27.83-15.71c13.76-3.33,25.09-0.72,33.43,9.06c6.57,7.7,8,16.35,1.76,24.49
			c-8.29,10.79-22.24,15.23-34.66,12.22c-7.81-1.9-6.21-6.84-4.42-11c1.11-2.59,4.39-2.61,5.55,0.62
			c4.59,12.79,14.73,4.98,20.86,2.74c8.81-3.22,16.38-9.97,11.39-19.13c-6.47-11.87-22.93-22.63-42.33-10.78
			c-9.55,5.84-18.9,11.85-24.08,21.11c-10.84,19.4,10.51,46.56,44.09,41.89C213.04,586.89,216.79,583.61,220.72,586.99z"/>
		<path class="st56" d="M602.18,146.56c-2.93-0.09-5.86-0.18-8.79-0.26c35.22-24.38,73.85-25.04,114.51-11.54
			c10.43,3.46,21.73,5.28,30.7,11.47c-19-1.31-35.61-10.36-54.38-12.09c-22.73-2.1-46-5.78-65.07,10.01
			C614.57,147.94,607.93,146.08,602.18,146.56z"/>
		<path class="st56" d="M590.81,147.97c-4.91,10.56-15.86,14.04-27.66,16.52C571.68,158.17,580.66,152.38,590.81,147.97z"/>
		<path class="st56" d="M533.58,187.21c-0.1,4.38-2.8,6.74-7.97,7.18C528.27,192,530.93,189.61,533.58,187.21z"/>
		<path class="st57" d="M964.6,183.83c0.98-1.86,1.97-3.73,2.95-5.59c13.37-8.53,11.28-20.63,10.69-32.39
			c-1.39-3.79,1.1-6.62,3.62-9.23c16.1-16.67,34.09-32.08,47.63-50.46c1.4-1.9,3.62-3.36,6.52-3.67c9.68,2.55,7.94-5.47,11.44-8.65
			c9.5-0.1,19.03,0.22,28.46-0.43c12.26-0.84,11.81,4.15,7.4,10.65c-7.56,11.15-16.04,21.74-26.38,31.37
			c-26.29,24.48-53.31,48.35-81.7,71.13c-2.95,2.36-6.46,5.47-10.43,4.25C960.64,189.54,965.06,186.23,964.6,183.83z"/>
		<path class="st58" d="M939.8,219.09c2.92-10.1,6.77-19.79,16.82-26.76C958.6,204.6,950.4,212.37,939.8,219.09z"/>
		<path class="st59" d="M858.43,395.64c-15.73,15.82-35.56,21.27-59.78,17.8c-12.21-1.75-19.36-9.33-27.37-15.27
			c-9.68-7.18-20.84-7.77-28.21-2.4c-20.96,15.29-44.77,15.75-69.74,13.27c-19.53-1.94-34.14,5.74-44.04,18
			c-8.93,11.07-19.63,13.39-33.62,11.55c13.14-1.01,20.06-9.38,27.64-16.74c7.17-6.95,14.75-13.46,23.89-18.57
			c15.81-8.86,32.16-6.8,47.82-0.33c7.31,3.02,12.42,2.37,18.52-1.36c5.45-3.33,11.53-5.97,17.46-8.73
			c23.6-11,29.55-10.63,50.24,2.88c21.74,14.21,39.56,14.7,63.61,1.74C849.38,396.87,853.91,396.26,858.43,395.64z"/>
		<path class="st60" d="M962.07,571.36c0.81-0.86,1.61-1.71,2.42-2.57c2.61-6.64,2.45-13.28,0.09-19.93
			c-2.82-3.41-3.43-6.73,0.6-9.85c8.84-1.54,17.91-1.48,26.85-2.18c16.39-1.29,26.36,8.99,33.33,18.58
			c13.24,18.22,28.31,35.74,37.38,55.95c10.69,15.93,21.26,31.96,42.06,40.51c15.5,6.38,31.08,12.55,48.83,5.86
			c24.6-6.11,35.32-14.74,34.76-38.41c-0.5-20.66-18.19-41.69-38.63-46.54c-10.9-2.58-19.41,1.32-27.24,6.95
			c-9.08,6.53-9.36,14.67-5.32,25.09c-4.32-15.06-2.16-21.14,8.75-27.65c11.54-6.88,20.92-6.47,34.04-0.17
			c23.51,11.3,34.02,39.54,25.42,60.64c-2.52,6.19-7.79,10.84-14.76,14.25c-5.91,2.9-12.77,3.81-18.51,6.92
			c-22.54,7.18-62.93-8.96-77.99-31.16c-4.47-6.59-9.09-13.11-13.58-19.69c-8.32-10.63-3.8-22.46-4.5-33.8
			c2.67-20.28,17.56-33.18,37.32-43.04c3.42-1.71,7.25-3.31,11.35-0.97c11.32-2.52,22.46-7.21,34.44-2.04
			c30.93,9.05,54.9,25.63,73.68,47.81c3.17,15.03,8.98,29.57,8.52,45.25c-0.72,24.38-12.68,44.91-32.83,60.78
			c-13.19,10.38-31.37,16.07-48.7,22.32c-25.38,9.16-50.71,3.15-75.92,4.59c-12.61,0.72-24.71-3.15-34.87-10.48
			c-5.02-3.62-9.54-8.27-16.77-9.25c-6.53-15.73-20.8-28.09-24.92-45.4c-2.66-11.21-15.7-19.15-30.41-22.29
			c-2.09-2.05-4.17-4.09-6.26-6.14c-2.91-7.88-12.46-9.57-18.84-14.21c0,0,0.06,0.04,0.06,0.04c-1.8-3.43-1.96-6.08,2.89-8.28
			c6.62-3,12.49-7.2,19.19-10.05C960,580.26,962.96,576.95,962.07,571.36z"/>
		<path class="st61" d="M1101.05,452.5c5.88-9.25,1.37-18.02-3.46-25.86c-5.41-8.78-5.39-16.43,0.82-24.44
			c4.05-3.46,2.64-7.86,2.7-11.91c0.06-4.28,0.6-8.41,3.65-11.92c2.88-3.32,5.8-8.05,11.27-7.1c6.87,1.19,4.24,6.91,4.05,10.6
			c-1.23,24.13,3.73,47.89,6.06,71.78c0.78,8,6.88,15.56,4.59,24.17c-3.17-2.63-6.58-5.09-9.42-7.95c-2.8-2.83-5.09-7.71-10-5.63
			c-4.31,1.82-2.27,6.89-1.48,10.33c2.99,13.12,3.33,26.29,2.1,39.54c-6.39-1.76-7.55-6.47-7.35-10.9
			c0.42-9.22-3.79-16.71-10.39-23.62C1096.03,470.47,1092.83,460.47,1101.05,452.5z"/>
		<path class="st62" d="M1096,480.08c9.79,2.29,13.48,7.92,13.45,16.15c-0.02,5.99-1.37,12.22,2.5,17.86
			c0.64,6.32-0.57,12.06-7.22,16.07c-21.66,9.52-39.17,22.04-44.59,43.3c-2.88,6.67-0.86,14.26-5.52,21.49
			c-8.16-3.72-11.2-10.67-13.87-16.19c-8.59-17.71-21.3-32.24-39.7-43.43c-1.05-0.64-1.23-1.99-1.37-3.13
			c-1.66-0.86-3.33-1.72-4.99-2.58c-0.13-9.06,9.07-18.31,4.67-26.09c-6.35-11.22,0.41-19.18,3.96-28.33
			c1.78-3.75,3.55-7.49,5.32-11.24c2.72-0.2,5.43-0.41,8.15-0.61c5.43-2.85,10.86-5.66,15.45,0.97c2.08,3.38,0.5,7.21,1.84,10.69
			c0.62,2.41,1.61,4.71,2.8,6.97c2.75,5.56,6.94,7.4,13.33,3.69c6.49-3.77,12.38-2.59,17.95,1.48c6.02,4.81,11.73,4.41,17.43-0.49
			C1088.61,484.02,1091.09,480.66,1096,480.08z"/>
		<path class="st63" d="M1030.11,466.29c-2.84-6.1-8.81-2.21-13.34-2.94c-0.63-12.12,0.12-24.03,5.27-35.62
			c2.88-6.49,2.75-13.16,0.53-20.1c-3.04-9.51,2.21-17.84,7.64-25.88c18.3,2.59,26.51,17.13,41.01,24.3
			c15.7,7.76,18.67,22.2,24.3,35.08c1.68,3.86,2.07,8.12,5.52,11.37c-0.59,9.34,2.84,19.19-5.06,27.58
			c-0.79,4.33-4.59,7.14-7.64,10.27c-8.08,8.31-14.29,7.91-22.69-1.29c-3.04-5.96-7.95-8.13-14.2-3.55
			c-8.29,6.08-13.43,1.96-18.7-3.11c-2.92-1.84-2.24-4.58-2.51-7.08C1027.58,472.35,1034.44,469.25,1030.11,466.29z"/>
		<path class="st64" d="M1036.01,82.49c-13.63,24.72-38.1,42.51-57.78,63.37c-7.04,5.44-14.48,9.27-23.97,3.99
			c9.95-10.46,17.07-22.82,26.17-33.68c14.7-17.56,27.93-38.61,58.89-40.99C1041.81,78.29,1036.46,79.78,1036.01,82.49z"/>
		<path class="st65" d="M200.86,667.03c4.39-6.71,13.64-4.89,20.27-7.94c17.26-7.93,31.95-18.61,46.71-29.08
			c26.52-18.82,57.67-31.04,87.64-44.94c13.77-6.39,28-12.28,44-13.99c0.98,4.81,7.07,8.1,5.74,13.6
			c-23.89,10.65-48.43,20.45-68.42,36.26c-16.14,2.86-25.33,14.04-37.08,22.04c-13.49,9.19-22.52,23.71-40.99,26.81
			C239.44,673.02,219.61,675.65,200.86,667.03z"/>
		<path class="st24" d="M178.86,662.88c4.91-0.78,8.9,0.15,11.2,4.23C185.54,667.17,181.95,665.49,178.86,662.88z"/>
		<path class="st21" d="M931.85,601.1c6.88,4.18,22.66,0.09,18.85,14.21C943.62,611.31,937.28,606.63,931.85,601.1z"/>
		<path class="st66" d="M642.82,320.04c0.88,1.61,1.77,3.23,2.65,4.84c4.44,9.08,2.43,18.24,0.45,27.4l0.06-0.09
			c-5.62,9.65-16.01,15.67-24.8,22.91c-3.65,1.46-7.3,2.92-10.96,4.38c-15.53,3.71-31.43,2.87-47.18,2.05
			c-20.47-1.07-36.73-16.28-39.04-33.1c-3.28-23.8,12.48-36.7,34.02-44.28c16.25-5.72,32.05-6.96,48.73-5.72
			c11.27,0.84,20.52,5.66,27.19,13.17C636.67,314.67,639.22,317.69,642.82,320.04z"/>
		<path class="st67" d="M772.56,355.47c-4.95-0.37-10-0.35-14.84-1.19c-23.75-4.13-39.91-16.5-41.21-31.22
			c-2.04-22.99,8.97-37.95,34.1-46.3c30.09-10,63.69,0.13,76.33,23.01c12.76,23.11,0.42,45.55-28.93,52.71
			C789.69,354.51,781.32,356,772.56,355.47z"/>
		<path class="st68" d="M642.82,320.04c-4.86,0.06-8.72-0.87-10.61-5.35c-3.93-9.34-14.01-13.09-23.95-14.39
			c-31.68-4.14-57.57,5.84-78.79,25.32c-4.08,3.75-0.89,7.99-1.12,11.95c-0.45,7.86-2.23,16.67,2.85,23.27
			c12.72,16.54,32.28,21.57,55.01,19.48c7.96-0.73,15.9-2.73,24.01-0.86c-23.56,9.66-59.99,6.04-76.2-7.56
			c-23.69-19.89-18.42-51.88,10.83-65.8c31.89-15.18,70.76-13.25,91.86,4.47C639.92,313.28,643.32,315.74,642.82,320.04z"/>
		<path class="st69" d="M696.21,388.02c-12.06,0.12-21.14-5.7-20.71-13.69c0.56-10.5,10.4-13.02,19.85-13.25
			c9.48-0.23,19.38,1.85,20.16,12.55C716.16,382.5,708.8,387.89,696.21,388.02z"/>
		<path class="st68" d="M621.18,375.1c4.13-10.77,16.37-15.4,24.8-22.91C642.62,363.55,634.69,371.44,621.18,375.1z"/>
		<path class="st68" d="M645.92,352.28c-2.78-9.1-1.47-18.25-0.45-27.4C653.75,333.92,651.91,343.08,645.92,352.28z"/>
		<path class="st51" d="M831.28,509.79c4.51-3.79,10.25-4.5,16.25-4.57C843.2,509.46,837.39,510.01,831.28,509.79z"/>
		<path class="st70" d="M645.17,468.34c10.63,0.48,8.32,7.13,8.24,12.46c-0.1,6.84-6.39,6.06-11.7,6.08
			c-11.23,0.05-22.54-0.75-33.66,0.12c-13.01,1.01-21.37-1.71-22.15-13.77c3.86-4.77,9.8-2.57,14.78-2.77
			C615.52,469.87,630.46,470.89,645.17,468.34z"/>
		<path class="st1" d="M773.13,448.53c-1.93,6.5-6.23,0.91-9.35,1.28C766.52,447.41,769.85,448.07,773.13,448.53z"/>
		<path class="st71" d="M653.93,505.17c1.74-0.01,3.48-0.02,5.23-0.04c7.98-0.1,15.96-0.19,23.93-0.29c3.53,5.7-1.51,6.84-6.06,6.87
			c-28.29,0.23-56.59,0.15-84.88,0.15c-3.62,0-5.95-1.37-6.48-4.51c12.75-0.08,25.5-0.16,38.25-0.24
			c9.81-2.56,20.16,0.78,29.96-1.92L653.93,505.17z"/>
		<path class="st72" d="M686.27,484.65c-4.02,0.25-8.16,0.09-12.05,0.85c-5.78,1.13-12.62,3.4-15.74-2
			c-3.2-5.55-2.15-11.78,5.88-15.19c13.74,2.13,26.81-4.64,40.63-2.14c3.76,0.68,8.2-0.68,10.65,3.2
			c3.65,5.77-0.41,12.26-8.33,12.75C700.22,482.57,692.86,481.3,686.27,484.65z"/>
		<path class="st72" d="M659.34,502.75c1.04-12.72,2.84-13.64,26.96-13.77c7.13-0.72,14.24-1.67,21.39-2.06
			c3.85-0.21,9.29-0.66,9.65,3.93c0.3,3.82-5.72,6.87-8.16,6.21C691.27,492.21,676.4,504.12,659.34,502.75z"/>
		<path class="st73" d="M999.66,532.2c17.97,6.44,29.35,18.19,37.38,32.6c5.09,9.12,10.06,18.29,16.14,29.37
			c4.08-8.04,2.19-15.25,6.94-20.71c2.09,11.31-3.98,23.14,3.07,34.14c1.55,2.83,1.66,5.01-3.17,5
			c-5.79-11.42-13.01-22.19-22.54-31.67c-4.93-4.9-6.47-11.1-10.02-16.46c-12.85-19.38-31.42-27.07-56.91-25.14
			c-1.77,0.13-3.59-0.21-5.38-0.33C976.67,536.74,988.17,534.47,999.66,532.2z"/>
		<path class="st73" d="M964.58,548.86c5.15,6.66,4.3,13.3-0.09,19.93C964.52,562.14,964.55,555.5,964.58,548.86z"/>
		<path class="st46" d="M653.88,505.2c-9.67,4.13-19.9,2.09-29.96,1.92C633.61,503.25,643.9,505.9,653.88,505.2z"/>
		<path class="st74" d="M1152.95,658.08c3.24-2.02,6.22-4.48,9.78-5.98c20.84-8.83,27.22-24.1,19.88-43.2
			c-5.22-13.57-13.21-24.52-27.84-32.15c-11.25-5.86-19.68-1.55-28.21,4.12c-8.43,5.61-11.47,12.35-7.1,21.04
			c2.16,4.29,6.43,8.15,5.32,14.15c-14.63-13.05-17.04-26.6-7.21-36.64c10.78-11.01,29.09-11.3,46.54-2.86
			c27.7,13.41,32.61,44.99,23.18,63.12c-5.77,11.08-17.39,19.46-34.3,18.44L1152.95,658.08z"/>
		<path class="st75" d="M1060.02,612.6c1.06-1.66,2.11-3.33,3.17-5c11.28,10.18,14.64,24.71,28.97,33.64
			c18.41,11.49,37.21,19.57,60.79,16.83c0,0,0.04,0.03,0.04,0.03c-4.95,8.06-13.39,4.46-20.36,3.75
			c-31.48-3.24-52.61-18.7-67.42-41.23C1063.46,617.96,1061.75,615.28,1060.02,612.6z"/>
		<path class="st76" d="M1032.78,482.41c6.49,2.56,12.27,4.59,19.57,0.04c8.51-5.31,13.03-1.49,13.32,6.62
			c-4.2-2.5-7.88-4.42-13.14-0.68C1042.44,495.55,1036.35,491.41,1032.78,482.41z"/>
		<path class="st76" d="M1030.11,466.29c4.27,2.96,1.76,6.01,0.15,9.04C1026.34,472.36,1030.24,469.3,1030.11,466.29z"/>
	</g>
</g>
</svg>
