<?xml version="1.0" encoding="UTF-8" standalone="no"?>
<svg
   version="1.1"
   width="2324.9763pt"
   height="2324.9763pt"
   id="svg5"
   viewBox="0 0 2324.9763 2324.9763"
   sodipodi:docname="视觉组.svg"
   inkscape:version="1.3.2 (1:1.3.2+202311252150+091e20ef0f)"
   xmlns:inkscape="http://www.inkscape.org/namespaces/inkscape"
   xmlns:sodipodi="http://sodipodi.sourceforge.net/DTD/sodipodi-0.dtd"
   xmlns="http://www.w3.org/2000/svg"
   xmlns:svg="http://www.w3.org/2000/svg">
  <defs
     id="defs5" />
  <sodipodi:namedview
     id="namedview5"
     pagecolor="#ffffff"
     bordercolor="#000000"
     borderopacity="0.25"
     inkscape:showpageshadow="2"
     inkscape:pageopacity="0.0"
     inkscape:pagecheckerboard="0"
     inkscape:deskcolor="#d1d1d1"
     inkscape:zoom="0.28290611"
     inkscape:cx="1551.7516"
     inkscape:cy="1553.5189"
     inkscape:window-width="1920"
     inkscape:window-height="1053"
     inkscape:window-x="1920"
     inkscape:window-y="27"
     inkscape:window-maximized="1"
     inkscape:current-layer="svg5"
     inkscape:document-units="pt" />
  <path
     d="M 0.28345001,0.28345001 H 2324.6929 V 2324.6929 H 0.28345001 Z"
     style="fill:#f7af03;fill-rule:evenodd;stroke:#1b1918;stroke-width:0.5669;stroke-linecap:butt;stroke-linejoin:miter;stroke-dasharray:none"
     id="path1" />
  <path
     d="m 1572.8653,1274.5306 c 13.5479,-24.2733 129.9361,-225.2435 140.9119,-231.091 6.4117,43.0287 26.0186,206.8018 39.7357,233.3176 l 212.8257,0.4072 -194.0985,137.379 34.2284,238.3983 c -17.9639,-6.8665 -35.4218,-24.2205 -49.9093,-35.5965 l -138.331,-104.9223 c -33.5955,10.1437 -182.9252,111.5967 -241.5045,138.6166 l 106.9197,-235.962 c -37.592,-44.6506 -78.805,-79.9385 -129.9414,-140.33 z M 969.64265,660.02365 c 4.1675,-36.3827 38.99535,-213.6085 51.46955,-234.8549 49.7207,-3.9313 190.2412,-5.3134 236.9474,1.9938 71.3004,11.1557 108.6667,56.6454 89.2255,138.2834 -14.6761,61.6291 -69.9059,90.2233 -144.0498,94.3714 -71.2933,3.9894 -161.6594,2.5139 -233.59265,0.2063 z m 411.71925,89.2889 c 113.9025,-19.6986 186.9746,-74.4559 215.8332,-176.2121 34.6691,-122.2428 3.859,-241.9188 -69.8689,-298.6012 -79.9526,-61.4704 -219.4101,-55.406 -338.2752,-55.406 -121.8196,0 -273.75495,-8.0389 -391.85845,0.9907 -5.8546,10.2512 -208.6106,948.76985 -208.5013,983.96255 l 259.4719,-0.046 75.1964,-357.65835 c 307.83885,-18.0644 314.14825,15.3601 300.81195,242.04755 -8.0177,136.3019 6.743,128.2243 70.4964,197.7988 l 133.4601,138.1158 -158.6501,346.1783 c 37.0861,-12.6576 297.1151,-180.265 344.0857,-199.8984 21.1653,13.2958 43.8256,31.5224 66.0134,49.0755 28.3262,22.4082 172.1045,135.5403 192.4378,143.5598 l -45.25,-324.8173 c 15.6492,-15.1609 52.365,-39.0411 73.7807,-53.6625 24.3527,-16.6277 50.0328,-34.2849 74.2656,-51.6194 48.0459,-34.3694 100.7019,-66.4947 145.654,-104.3265 l -328.4594,-1.4544 -52.8357,-324.88065 c -18.0785,17.1547 -86.4543,142.31685 -105.245,173.80395 -17.5972,29.4845 -34.1155,56.3387 -52.3457,87.5543 -38.2865,65.5533 -28.4566,64.1976 -70.6445,62.1773 -69.4123,-91.7693 0.6117,-307.41395 -45.7225,-408.96905 -21.569,-47.2756 -41.2694,-43.8662 -83.8504,-67.7129 z"
     style="fill:#010000;fill-rule:evenodd"
     id="path2" />
  <path
     d="m 1572.8653,1274.5306 -219.1633,0.2169 c 51.1364,60.3915 92.3494,95.6794 129.9414,140.33 l -106.9197,235.962 c 58.5793,-27.0199 207.909,-128.4729 241.5045,-138.6166 l 138.331,104.9223 c 14.4875,11.376 31.9454,28.73 49.9093,35.5965 l -34.2284,-238.3983 194.0985,-137.379 -212.8257,-0.4072 c -13.7171,-26.5158 -33.324,-190.2889 -39.7357,-233.3176 -10.9758,5.8475 -127.364,206.8177 -140.9119,231.091 z"
     style="fill:#fefefe;fill-rule:evenodd"
     id="path3" />
  <path
     d="m 969.64265,660.02365 c 71.93325,2.3076 162.29935,3.7831 233.59265,-0.2063 74.1439,-4.1481 129.3737,-32.7423 144.0498,-94.3714 19.4412,-81.638 -17.9251,-127.1277 -89.2255,-138.2834 -46.7062,-7.3072 -187.2267,-5.9251 -236.9474,-1.9938 -12.4742,21.2464 -47.30205,198.4722 -51.46955,234.8549 z"
     style="fill:#fdac02;fill-rule:evenodd"
     id="path4" />
  <path
     d="m 278.12435,1873.3133 c 17.3792,11.1121 30.2247,19.8238 38.5364,26.0464 3.4671,4.8895 3.4671,9.7342 0,14.5789 -4.1337,5.5562 -8.6675,6.6228 -13.5121,3.1558 -4.178,-2.8001 -13.5567,-9.3784 -28.1356,-19.8235 -4.8892,-2.7559 -7.645,-4.845 -8.3563,-6.2229 -5.5559,-3.4668 -6.5783,-8.0005 -3.1113,-13.5567 4.178,-5.5559 9.023,-6.9339 14.5789,-4.178 z m -4.178,70.85 c 12.5343,7.645 23.9573,14.9346 34.4027,21.8684 4.8447,4.8892 5.5559,9.7342 2.0891,14.5789 -4.1782,5.5562 -9.0229,6.6228 -14.5791,3.1558 -4.8892,-2.8001 -13.201,-8.3563 -25.024,-16.668 -2.7558,-1.4222 -5.2004,-3.1558 -7.2896,-5.2447 -5.5559,-3.467 -6.9338,-7.9563 -4.178,-13.5122 3.4668,-5.5561 8.356,-6.9341 14.5789,-4.1782 z m 13.5564,76.0504 c 2.0892,-6.9338 6.9341,-9.7342 14.5792,-8.3563 6.2671,2.0892 8.7117,6.9784 7.2893,14.6234 -11.1118,37.4698 -21.8685,63.1607 -32.2691,77.0729 -5.5562,6.2671 -11.4675,7.645 -17.7347,4.178 -4.8449,-4.8892 -5.2004,-10.7564 -1.0224,-17.7347 12.49,-20.1348 22.2239,-43.3811 29.1577,-69.7833 z m 66.672,-6.2671 h 106.2751 c 16.668,0 24.9798,7.645 24.9798,22.9351 v 51.0262 c 0,14.6233 -6.9338,21.9129 -20.846,21.9129 h -110.4089 c -17.3792,0.6667 -25.3352,-6.2671 -23.9573,-20.846 v -51.0706 c -1.3779,-16.668 6.5781,-24.6243 23.9573,-23.9576 z m 101.0747,20.846 h -97.9634 c -5.5559,0 -7.956,2.8003 -7.2893,8.3562 v 38.5365 c -0.6667,4.8449 2.0892,7.2895 8.3563,7.2895 h 97.9189 c 5.5559,0 8.3117,-2.8003 8.3117,-8.3562 v -36.4473 c 0,-6.2671 -3.1116,-9.3787 -9.3342,-9.3787 z m -6.2671,-127.0766 h -77.0729 c -0.7109,1.3779 -1.4221,2.4001 -2.0888,3.1113 11.1118,20.8462 25.3352,37.1585 42.7144,48.9818 18.7126,-11.8233 32.2693,-26.0467 40.6253,-42.7147 2.0891,-3.4668 2.7558,-5.9114 2.0891,-7.2893 -0.7112,-1.4224 -2.8001,-2.0891 -6.2671,-2.0891 z m -62.4937,-20.846 h 78.095 c 18.7569,0 24.313,8.6672 16.668,26.0464 -11.1121,23.6018 -27.0689,43.3811 -47.9151,59.3824 18.7571,10.4009 40.981,17.3347 66.672,20.8463 5.5561,1.3776 8.0007,5.2002 7.2895,11.4231 -1.3779,6.2671 -4.8449,9.0671 -10.4009,8.3562 -34.7139,-4.845 -63.2049,-14.2234 -85.4288,-28.1356 -20.1351,11.8231 -48.6261,21.2015 -85.4291,28.1356 -7.6451,2.0889 -12.4898,0 -14.5789,-6.2674 -1.3779,-6.9338 1.7334,-11.4676 9.3784,-13.5119 28.4913,-5.5562 52.0932,-12.8455 70.8503,-21.9129 -14.5792,-11.7788 -26.4022,-26.3577 -35.4251,-43.7369 -8.3563,8.3562 -18.4014,16.668 -30.2247,25.0242 -6.9339,4.1338 -12.8455,3.4671 -17.6902,-2.0891 -3.4671,-6.2671 -1.7334,-11.4676 5.2004,-15.6456 20.846,-14.5788 39.2474,-34.7139 55.2042,-60.4048 4.1783,-6.9784 9.3787,-8.7118 15.6458,-5.2005 4.8447,4.1338 5.5559,10.0454 2.0892,17.6905 z m 185.2146,7.2893 h -7.2896 c -6.9338,0 -10.7564,-2.7556 -11.4676,-8.3118 0,-6.2671 3.4671,-9.7339 10.4009,-10.4451 h 180.2364 c 6.2671,0.7112 10.0897,2.4446 11.4676,5.2005 1.3779,2.8 0.3557,6.6225 -3.1113,11.4675 -15.2901,21.5572 -37.8698,40.2698 -67.7387,56.2711 30.5802,11.1119 61.827,17.6902 93.7409,19.7793 6.2671,0.7113 9.3784,3.8226 9.3784,9.3785 -0.6667,6.9338 -3.8225,10.4009 -9.3784,10.4009 -34.7139,-2.0447 -73.6058,-11.4231 -116.676,-28.0911 -34.0027,15.9568 -73.2504,26.3577 -117.6982,31.2469 -5.5559,0.6667 -9.023,-1.7334 -10.4009,-7.2896 0,-5.5559 2.7559,-9.023 8.3118,-10.4451 43.7814,-4.845 76.7616,-12.8455 98.9855,-23.9576 -24.313,-12.4897 -47.2481,-30.8914 -68.7608,-55.2044 z m 155.2121,0 h -131.2548 c 22.2241,21.5129 44.8035,36.4473 67.6944,44.8035 24.3131,-13.2009 45.5145,-28.1355 63.5604,-44.8035 z m -55.2041,100.008 v 25.0242 h 85.4288 c 6.2226,0.6667 9.3784,3.778 9.3784,9.3339 0,6.2672 -3.1558,9.3788 -9.3784,9.3788 h -85.4288 v 51.0706 h 103.119 c 5.5562,0 8.6675,3.1113 9.3787,9.3785 -0.7112,5.5559 -3.8225,8.6675 -9.3787,9.3784 h -226.0622 c -6.9338,-0.7109 -10.4008,-3.8225 -10.4008,-9.3784 0,-6.2672 3.467,-9.3785 10.4008,-9.3785 h 103.1636 v -51.0706 h -85.4289 c -6.9783,0 -10.4454,-3.1116 -10.4454,-9.3788 0,-5.5559 3.4671,-8.6672 10.4454,-9.3339 h 85.4289 v -25.0242 c 0,-6.2671 3.1116,-9.7342 9.3342,-10.4009 6.2671,0.6667 9.7342,4.1338 10.4454,10.4009 z m 220.6394,-117.6982 v 20.8018 h 24.9798 c 5.5562,0.7109 8.712,3.8225 9.3787,9.3784 -0.6667,5.5559 -3.8225,8.3562 -9.3787,8.3562 h -24.9798 v 32.2691 h 9.3787 c 12.4898,-15.9568 24.9798,-36.8028 37.514,-62.4938 3.4671,-6.9338 8.3118,-9.0229 14.5789,-6.2671 5.5562,2.8001 6.9338,7.6451 4.1338,14.6234 -12.4901,24.2685 -22.8907,42.359 -31.2469,54.1375 h 32.3135 c 4.1783,0.7112 6.5784,3.8225 7.2896,9.3787 -0.7112,5.5559 -3.1113,8.3562 -7.2896,8.3562 h -46.8924 c -8.312,9.7339 -15.6013,17.3347 -21.8684,22.8907 h 39.6031 c 11.1118,0.7112 16.979,6.6225 17.6902,17.7346 v 84.3622 c -0.7112,11.8233 -6.5784,17.7347 -17.6902,17.7347 h -70.85 c -12.49,0 -18.4017,-5.9114 -17.7349,-17.7347 v -66.672 c -4.1335,2.8004 -9.023,5.9117 -14.5789,9.3787 -6.2226,3.4668 -11.1121,2.8001 -14.5789,-2.0891 -2.7558,-6.9338 -1.3779,-12.1343 4.178,-15.6013 29.158,-14.5789 52.4486,-31.2469 69.7833,-50.0038 h -63.5162 c -4.8892,0 -7.645,-2.8003 -8.3559,-8.3562 0.7109,-5.5562 3.4667,-8.6675 8.3559,-9.3787 h 50.004 v -32.2691 h -38.5806 c -4.845,0 -7.6009,-2.8003 -8.3118,-8.3562 0.7109,-5.5559 3.4668,-8.6675 8.3118,-9.3784 h 38.5806 v -20.8018 c 6.2229,-10.4454 12.8455,-10.4454 19.7793,0 z m -31.2468,137.4775 v 25.0242 h 65.6053 v -25.0242 c 0,-4.1338 -2.4004,-6.5784 -7.2896,-7.2896 h -51.0262 c -5.5559,0 -8.0007,2.4449 -7.2895,7.2896 z m 134.3661,-132.2771 h 43.78145 c 15.9568,1.378 21.8685,9.7342 17.6902,24.9798 -3.4671,10.4451 -8.6672,24.313 -15.6455,41.6922 -5.5562,14.5789 -8.3118,22.8907 -8.3118,24.9798 0,2.0888 2.0889,5.9114 6.2671,11.4675 15.2456,18.7569 23.6018,37.1586 24.9798,55.2042 0.7112,40.3143 -18.4017,55.5599 -57.2936,45.8705 -6.2671,-2.0891 -8.66725,-6.9783 -7.28935,-14.6233 2.75565,-6.9342 7.64505,-9.3788 14.57895,-7.2896 19.468,9.0229 28.8467,1.0667 28.1355,-23.9576 0,-11.1118 -6.6228,-25.3352 -19.7793,-42.7144 -7.645,-9.6897 -11.4675,-16.668 -11.4675,-20.8015 -0.7112,-5.5562 2.0888,-15.6458 8.3117,-30.2247 5.5559,-13.2009 10.0896,-24.6688 13.5567,-34.4027 2.0889,-6.2229 -0.3557,-9.3342 -7.2896,-9.3342 h -25.0242 c -4.84475,0.6667 -7.28965,2.4004 -7.28965,5.2005 v 198.949 c -0.6667,6.9783 -4.1335,10.7564 -10.4006,11.4676 -6.2671,-0.7112 -9.3787,-4.4893 -9.3787,-11.4676 v -197.9266 c -1.3776,-18.7571 5.9116,-27.7801 21.8684,-27.0689 z m -68.7608,174.9915 h -65.6053 v 26.0467 c -0.7112,4.178 1.7336,6.2671 7.2895,6.2671 h 51.0262 c 4.8892,-0.7112 7.2896,-2.8003 7.2896,-6.2671 z m 255.04245,-181.2586 h 124.9875 c 13.9124,0 20.8462,6.6226 20.8462,19.7793 v 50.004 c -0.7112,12.5343 -7.645,18.7569 -20.8462,18.7569 h -54.1375 v 28.1355 h 84.3622 c 5.5559,0.7113 8.6675,3.8226 9.3784,9.3787 -0.7109,6.2672 -3.4668,9.3785 -8.356,9.3785 h -79.162 c 15.2901,25.0242 44.4481,46.8927 87.518,65.6495 4.845,3.4671 5.9116,7.9563 3.1116,13.5122 -3.4671,6.2671 -7.9563,8.3563 -13.5122,6.2671 -35.4251,-15.9568 -63.2052,-37.1585 -83.34,-63.5604 v 73.9613 c -0.7112,5.5559 -4.1783,8.7117 -10.4454,9.3784 -6.2226,-0.6667 -9.3784,-3.4667 -9.3784,-8.3117 v -75.028 c -13.8677,22.2239 -38.5365,42.359 -73.9613,60.4491 -5.5562,2.0446 -10.0454,0.3113 -13.5122,-5.2449 -3.5116,-4.8447 -2.8003,-9.0227 2.0446,-12.4898 39.6032,-22.2239 66.6718,-43.7368 81.2951,-64.5828 h -74.0058 c -5.5559,0 -8.3117,-2.0892 -8.3117,-6.2671 1.3779,-6.9339 4.5337,-11.1121 9.3784,-12.4901 h 77.0729 v -28.1355 h -53.1153 c -12.4898,0 -18.7572,-6.9338 -18.7572,-20.8015 v -47.9594 c -0.7109,-13.1567 6.2674,-19.7793 20.8463,-19.7793 z m 113.5644,18.7569 H 1191.13 c -7.645,0 -11.1121,3.467 -10.4453,10.4009 v 27.1133 c -0.6668,9.7339 3.5115,14.2232 12.5345,13.5122 h 103.1193 c 6.9338,0 10.7563,-4.1337 11.4675,-12.49 v -24.9797 c 0,-9.023 -4.1782,-13.5567 -12.49,-13.5567 z m -157.3458,40.6255 v 169.7911 c -0.6667,6.2674 -4.4892,9.7341 -11.423,10.4454 -6.2671,-0.7113 -9.3785,-4.5338 -9.3785,-11.4676 v -132.3215 c -1.4224,1.4224 -2.8003,3.5112 -4.1782,6.2671 -2.0889,2.8003 -4.178,5.5559 -6.2671,8.3562 -5.5559,5.5559 -10.7564,5.8672 -15.6014,1.0222 -3.4667,-5.5559 -3.4667,-11.4676 0,-17.6902 20.1351,-22.2239 32.9806,-51.0707 38.5365,-86.4958 1.3779,-8.3117 5.9116,-12.4897 13.5567,-12.4897 6.9338,1.3779 10.0451,6.5783 9.3784,15.6455 -2.8001,14.5792 -7.645,30.8914 -14.6234,48.9373 z m 342.5604,35.4249 h 138.5445 c 5.5559,0.7112 8.6672,4.1783 9.3784,10.4009 -0.7112,6.2671 -3.8225,9.3787 -9.3784,9.3787 h -41.6923 c -11.7788,30.5801 -27.4243,54.5374 -46.8482,71.8721 49.2928,16.668 78.8063,27.4689 88.5405,32.3139 6.2671,3.4667 8.6672,7.645 7.2893,12.4897 -2.8001,5.5559 -7.6451,7.2896 -14.5789,5.2449 -3.4668,-1.4224 -8.3563,-3.1558 -14.5789,-5.2449 -39.6031,-13.8676 -67.7386,-23.9573 -84.4066,-30.1802 -34.714,18.7126 -75.3393,29.8247 -121.8762,33.336 -8.312,0 -13.2012,-2.8 -14.5791,-8.3562 0,-6.9339 4.1782,-10.7564 12.49,-11.4676 34.7139,-2.0891 67.7386,-9.3784 98.9855,-21.8684 -13.9121,-4.178 -37.514,-12.8455 -70.85,-26.0465 -12.49,-6.2226 -13.8679,-14.9346 -4.1782,-26.0464 2.0891,-2.0891 6.6228,-6.2229 13.5567,-12.49 6.2671,-5.5559 11.112,-10.0896 14.5788,-13.5564 h -54.182 c -6.9338,0 -10.4008,-3.1116 -10.4008,-9.3787 0,-6.2226 3.467,-9.6897 10.4008,-10.4009 h 68.7612 c 9.0226,-11.823 17.3789,-25.6907 25.0239,-41.692 3.4671,-6.2229 8.6675,-8.3117 15.6014,-6.2229 6.2671,2.7559 8.0007,7.2896 5.2004,13.5567 -4.845,10.4009 -11.7788,21.8685 -20.8018,34.3582 z m 73.9616,19.7796 h -86.4958 c -8.3117,9.0227 -15.2456,16.3122 -20.8015,21.8681 -11.1121,9.7342 -16.0013,14.9347 -14.5791,15.6459 0,2.0891 14.2234,7.645 42.7144,16.668 13.1567,4.8447 23.9576,8.3562 32.2693,10.4009 20.1351,-15.9571 35.7806,-37.4698 46.8927,-64.5829 z m -44.8035,-93.7409 h 84.3621 c 15.2901,0.7112 22.9351,7.645 22.9351,20.846 -0.7112,6.2229 -2.7558,15.2458 -6.2671,27.0689 -0.6667,2.0891 -1.0224,3.8225 -1.0224,5.2004 -2.8001,6.9338 -7.2893,10.0897 -13.5564,9.3784 -6.2229,-2.0888 -8.3118,-6.578 -6.2229,-13.5564 6.2229,-20.135 6.2229,-30.1802 0,-30.1802 h -180.2364 c -6.2672,0 -9.3785,3.4668 -9.3785,10.4009 0.7112,0 1.0222,0 1.0222,0 v 20.846 c -0.6667,4.8447 -3.778,7.645 -9.3339,8.3118 -6.2671,-0.6668 -9.3787,-3.4671 -9.3787,-8.3118 v -29.158 c 1.3779,-13.201 9.0229,-20.1348 22.8909,-20.846 h 82.3175 c -1.3779,-4.178 -2.8003,-8.3562 -4.178,-12.4897 -0.7112,-2.8004 -1.0224,-4.5338 -1.0224,-5.245 -2.8001,-5.5559 -1.0667,-9.6896 5.2004,-12.49 5.5559,-2.0888 10.0451,-0.3555 13.5122,5.2005 2.0891,6.2671 4.8892,14.6233 8.3563,25.0242 z m 428.5672,-16.668 c 0,-6.2671 3.4668,-9.7342 10.4006,-10.4009 6.2674,0.6667 9.7342,4.1338 10.4009,10.4009 0,0.7112 -0.311,2.4446 -1.0222,5.2004 0,20.1351 0.7112,34.4027 2.0889,42.7145 9.7341,71.5167 37.1585,128.499 82.2733,170.858 5.5559,5.5559 5.5559,11.1121 0,16.668 -4.845,4.1779 -10.4009,3.467 -16.668,-2.0892 -36.8031,-36.136 -62.4938,-82.9842 -77.0729,-140.6333 -15.9568,62.4938 -45.4703,109.3865 -88.5402,140.6333 -7.645,4.1783 -13.5567,3.8225 -17.7346,-1.0222 -3.4671,-5.6004 -2.0447,-10.8008 4.1779,-15.6458 54.182,-42.3587 84.718,-103.119 91.6963,-182.3255 0,-11.7785 0,-23.2461 0,-34.3582 z m -117.7427,1.0225 h 35.4249 c 15.29,0.7109 20.8462,8.7117 16.668,23.9573 -1.378,3.5115 -3.1113,8.3562 -5.2005,14.6233 -7.645,23.6019 -11.4675,38.181 -11.4675,43.7369 0,3.4668 2.4448,9.3784 7.2895,17.6902 11.1121,18.7571 17.0235,34.0472 17.7347,45.8702 -2.0891,25.691 -17.0234,36.4473 -44.8035,32.2693 -6.9339,-0.6667 -10.7564,-3.8225 -11.4676,-9.3784 0.7112,-6.2229 4.5337,-9.3787 11.4676,-9.3787 17.3347,2.0891 25.6909,-3.4668 24.9797,-16.668 0,-8.3117 -4.8447,-20.4905 -14.5789,-36.4473 -6.2226,-11.1118 -9.3784,-18.7569 -9.3784,-22.9351 0,-4.1335 2.0889,-13.201 6.2671,-27.0686 3.4668,-11.1121 6.2226,-20.1351 8.3118,-27.0689 1.4224,-6.2671 -0.6667,-9.7342 -6.2226,-10.4454 h -16.668 c -5.5562,0 -8.0008,3.1558 -7.2896,9.3787 v 197.9266 c -0.7112,5.5559 -4.178,8.7117 -10.4454,9.3784 -6.2226,-0.6667 -9.3784,-3.8225 -9.3784,-9.3784 v -207.3053 c 0,-12.4897 6.2671,-18.7568 18.7571,-18.7568 z m -52.7153,183.8812 v 22.4016 H 1641.388 c -0.178,-5.6449 0.7554,-11.0676 2.7555,-16.3125 3.2449,-8.5782 8.4453,-17.068 15.6014,-25.3798 7.156,-8.3117 17.3792,-17.9124 30.6691,-28.8022 20.6683,-17.0235 34.714,-30.4912 42.0478,-40.4476 7.3783,-9.9564 11.0675,-19.3793 11.0675,-28.2688 0,-9.2897 -3.3335,-17.1124 -10.0009,-23.5131 -6.6671,-6.3561 -15.3788,-9.5561 -26.0909,-9.5561 -11.334,0 -20.4015,3.3777 -27.2021,10.1338 -6.8006,6.7119 -10.2232,16.0458 -10.3119,28.0024 l -24.0021,-2.4001 c 1.6447,-17.9569 7.8676,-31.6472 18.6239,-41.0701 10.8009,-9.4229 25.2465,-14.1344 43.4257,-14.1344 18.3124,0 32.847,5.067 43.5143,15.2456 10.7122,10.1786 16.0458,22.8019 16.0458,37.8252 0,7.6451 -1.5556,15.1569 -4.7114,22.5352 -3.1113,7.4228 -8.3118,15.2013 -15.5568,23.3796 -7.2893,8.134 -19.3349,19.3793 -36.1361,33.6027 -14.0902,11.823 -23.1574,19.8238 -27.1579,24.0463 -4.0002,4.2225 -7.2893,8.445 -9.9119,12.7123 z"
     style="fill:#1b1918;fill-rule:evenodd"
     id="path5" />
</svg>
