<?xml version="1.0" encoding="UTF-8"?>
<!DOCTYPE svg PUBLIC "-//W3C//DTD SVG 1.1//EN" "http://www.w3.org/Graphics/SVG/1.1/DTD/svg11.dtd">
<svg xmlns="http://www.w3.org/2000/svg" version="1.1" width="635px" height="519px" style="shape-rendering:geometricPrecision; text-rendering:geometricPrecision; image-rendering:optimizeQuality; fill-rule:evenodd; clip-rule:evenodd" xmlns:xlink="http://www.w3.org/1999/xlink">
<g><path style="opacity:0.902" fill="#523f38" d="M 333.5,85.5 C 343.76,86.9184 350.593,92.5851 354,102.5C 357.888,114.185 359.388,126.185 358.5,138.5C 386.167,138.5 413.833,138.5 441.5,138.5C 439.992,146.2 438.325,153.867 436.5,161.5C 431.5,161.5 426.5,161.5 421.5,161.5C 421.277,169.181 420.777,176.847 420,184.5C 418.274,185.576 416.441,185.743 414.5,185C 415.167,178.333 415.833,171.667 416.5,165C 397.658,163.865 378.825,163.032 360,162.5C 360.706,168.79 361.039,175.123 361,181.5C 359.905,189.924 355.072,194.091 346.5,194C 336.833,194.667 327.167,194.667 317.5,194C 314.424,193.654 311.424,192.988 308.5,192C 306.101,187.326 305.101,182.326 305.5,177C 305.063,171.979 306.063,167.312 308.5,163C 292.881,161.849 277.214,161.015 261.5,160.5C 260.167,161.167 259.167,162.167 258.5,163.5C 259.462,170.108 259.795,176.774 259.5,183.5C 262.833,183.5 266.167,183.5 269.5,183.5C 269.207,179.563 269.54,175.73 270.5,172C 277.638,169.595 284.971,168.928 292.5,170C 294.723,170.652 295.89,172.152 296,174.5C 296.172,179.202 296.672,183.868 297.5,188.5C 300.447,189.781 302.781,191.781 304.5,194.5C 312.5,195.5 320.5,196.5 328.5,197.5C 322.637,198.364 316.97,199.864 311.5,202C 308.504,204.815 307.171,208.315 307.5,212.5C 308.137,219.823 308.637,227.157 309,234.5C 309.325,245.498 313.491,254.665 321.5,262C 332.154,266.916 341.654,265.083 350,256.5C 351.275,254.283 352.275,251.949 353,249.5C 355.897,234.12 355.897,218.787 353,203.5C 348.044,200.215 342.544,198.382 336.5,198C 344.335,196.698 352.335,196.032 360.5,196C 363.729,193.384 367.396,191.884 371.5,191.5C 370.363,174.474 378.03,168.308 394.5,173C 396.725,173.561 398.725,174.561 400.5,176C 401.867,179.573 402.867,183.24 403.5,187C 418.977,187.851 434.311,189.685 449.5,192.5C 449.5,190.167 449.5,187.833 449.5,185.5C 446.5,185.5 443.5,185.5 440.5,185.5C 440.908,180.463 441.574,175.463 442.5,170.5C 452.176,171.406 461.843,172.406 471.5,173.5C 470.993,177.86 470.327,182.193 469.5,186.5C 465.774,186.177 462.107,186.511 458.5,187.5C 457.833,189.167 457.167,190.833 456.5,192.5C 460.833,194.5 465.167,196.5 469.5,198.5C 466.833,198.833 464.167,199.167 461.5,199.5C 442.16,198.261 422.827,196.928 403.5,195.5C 396.173,196.083 388.839,196.583 381.5,197C 376.554,197.403 371.887,198.736 367.5,201C 365.116,203.379 363.616,206.213 363,209.5C 362.813,221.213 362.313,232.879 361.5,244.5C 362.953,261.393 355.286,271.56 338.5,275C 320.1,279.387 308.266,272.553 303,254.5C 302,238.167 301,221.833 300,205.5C 296.099,198.795 290.266,194.962 282.5,194C 264.167,193.333 245.833,193.333 227.5,194C 216.601,196.281 205.601,196.948 194.5,196C 202.086,194.019 209.753,192.519 217.5,191.5C 217.5,188.5 217.5,185.5 217.5,182.5C 214.14,182.616 210.807,182.949 207.5,183.5C 206.624,179.538 205.958,175.538 205.5,171.5C 214.148,170.037 222.814,168.704 231.5,167.5C 231.942,171.154 232.276,174.821 232.5,178.5C 223.589,179.162 222.255,182.496 228.5,188.5C 237.411,186.608 246.411,185.275 255.5,184.5C 254.751,176.174 254.084,167.84 253.5,159.5C 246.833,159.5 240.167,159.5 233.5,159.5C 232.485,152.106 231.151,144.773 229.5,137.5C 255.741,137.172 281.908,137.505 308,138.5C 308.998,131.533 309.664,124.533 310,117.5C 310.885,106.493 315.052,96.9932 322.5,89C 326.102,87.2428 329.768,86.0761 333.5,85.5 Z M 330.5,91.5 C 339.784,91.2703 345.951,95.6037 349,104.5C 352.46,122.052 354.793,139.719 356,157.5C 347.258,143.719 335.424,140.219 320.5,147C 317.422,149.323 314.922,152.157 313,155.5C 312.881,139.995 314.548,124.662 318,109.5C 319.986,101.819 324.153,95.8193 330.5,91.5 Z M 359.5,144.5 C 382.427,145.608 405.427,146.441 428.5,147C 426.709,149.414 425.043,151.914 423.5,154.5C 402.212,153.511 380.879,153.178 359.5,153.5C 359.5,150.5 359.5,147.5 359.5,144.5 Z M 242.5,145.5 C 264.833,145.5 287.167,145.5 309.5,145.5C 309.5,148.167 309.5,150.833 309.5,153.5C 288.823,153.833 268.156,153.5 247.5,152.5C 245.395,150.408 243.728,148.075 242.5,145.5 Z M 314.5,171.5 C 317.382,171.608 319.715,172.774 321.5,175C 330.167,175.667 338.833,175.667 347.5,175C 349.217,173.441 351.217,172.608 353.5,172.5C 354.165,177.734 353.165,182.568 350.5,187C 348.801,187.958 346.967,188.458 345,188.5C 341.215,187.193 337.382,186.193 333.5,185.5C 331.833,185.667 330.167,185.833 328.5,186C 322.476,191.219 317.976,190.052 315,182.5C 314.501,178.848 314.335,175.182 314.5,171.5 Z"/></g>
<g><path style="opacity:0.714" fill="#b7aca8" d="M 340.5,98.5 C 337.167,98.5 333.833,98.5 330.5,98.5C 333.8,96.0359 337.134,96.0359 340.5,98.5 Z"/></g>
<g><path style="opacity:1" fill="#756a65" d="M 330.5,98.5 C 333.833,98.5 337.167,98.5 340.5,98.5C 341.906,98.9731 342.573,99.9731 342.5,101.5C 339.141,99.513 335.475,99.013 331.5,100C 330.529,101.481 329.196,102.315 327.5,102.5C 328.5,101.167 329.5,99.8333 330.5,98.5 Z"/></g>
<g><path style="opacity:0.859" fill="#aaa4a1" d="M 330.5,98.5 C 329.5,99.8333 328.5,101.167 327.5,102.5C 326.833,102.833 326.167,103.167 325.5,103.5C 326.167,100.833 327.833,99.1667 330.5,98.5 Z"/></g>
<g><path style="opacity:0.522" fill="#b8b1ad" d="M 325.5,103.5 C 325.029,105.579 324.363,107.579 323.5,109.5C 323.167,109.5 322.833,109.5 322.5,109.5C 322.755,107.033 323.755,105.033 325.5,103.5 Z"/></g>
<g><path style="opacity:0.714" fill="#857b78" d="M 343.5,103.5 C 345.074,105.102 345.741,107.102 345.5,109.5C 343.926,107.898 343.259,105.898 343.5,103.5 Z"/></g>
<g><path style="opacity:1" fill="#524139" d="M 342.5,101.5 C 343.338,101.842 343.672,102.508 343.5,103.5C 343.259,105.898 343.926,107.898 345.5,109.5C 345.5,109.833 345.5,110.167 345.5,110.5C 345.5,117.5 345.5,124.5 345.5,131.5C 345.167,131.5 344.833,131.5 344.5,131.5C 342.562,129.837 340.228,129.171 337.5,129.5C 333.298,128.201 328.964,128.201 324.5,129.5C 323.503,122.866 323.17,116.2 323.5,109.5C 324.363,107.579 325.029,105.579 325.5,103.5C 326.167,103.167 326.833,102.833 327.5,102.5C 329.196,102.315 330.529,101.481 331.5,100C 335.475,99.013 339.141,99.513 342.5,101.5 Z"/></g>
<g><path style="opacity:0.59" fill="#c0bab5" d="M 322.5,110.5 C 322.5,113.167 322.5,115.833 322.5,118.5C 321.515,122.634 321.182,126.968 321.5,131.5C 320.711,131.217 320.044,130.717 319.5,130C 319.992,123.324 320.992,116.824 322.5,110.5 Z"/></g>
<g><path style="opacity:1" fill="#8d827c" d="M 345.5,110.5 C 346.684,115.12 347.35,119.953 347.5,125C 347.467,127.61 346.8,129.777 345.5,131.5C 345.5,124.5 345.5,117.5 345.5,110.5 Z"/></g>
<g><path style="opacity:1" fill="#665952" d="M 322.5,109.5 C 322.833,109.5 323.167,109.5 323.5,109.5C 323.17,116.2 323.503,122.866 324.5,129.5C 328.964,128.201 333.298,128.201 337.5,129.5C 333.766,129.323 330.099,129.656 326.5,130.5C 325.167,130.5 323.833,130.5 322.5,130.5C 322.5,126.5 322.5,122.5 322.5,118.5C 322.5,115.833 322.5,113.167 322.5,110.5C 322.5,110.167 322.5,109.833 322.5,109.5 Z"/></g>
<g><path style="opacity:1" fill="#665956" d="M 337.5,129.5 C 340.228,129.171 342.562,129.837 344.5,131.5C 341.848,131.59 339.515,130.924 337.5,129.5 Z"/></g>
<g><path style="opacity:1" fill="#98908a" d="M 322.5,118.5 C 322.5,122.5 322.5,126.5 322.5,130.5C 323.833,130.5 325.167,130.5 326.5,130.5C 325.081,131.451 323.415,131.784 321.5,131.5C 321.182,126.968 321.515,122.634 322.5,118.5 Z"/></g>
<g><path style="opacity:0.883" fill="#503d37" d="M 511.5,181.5 C 527.452,180.27 541.286,184.937 553,195.5C 560.29,206.367 564.624,218.367 566,231.5C 569.33,264.912 568.663,298.245 564,331.5C 560.351,347.149 550.518,355.649 534.5,357C 519.114,358.189 504.447,355.522 490.5,349C 482.86,342.22 479.193,333.72 479.5,323.5C 451.126,322.857 423.126,325.69 395.5,332C 384.232,335.944 374.565,342.277 366.5,351C 355.33,354.872 343.83,356.372 332,355.5C 321.92,356.131 312.086,354.965 302.5,352C 275.073,331.52 244.239,319.687 210,316.5C 202.429,316.488 194.929,317.155 187.5,318.5C 191.85,342.667 181.85,356.833 157.5,361C 144.743,363.262 132.076,362.928 119.5,360C 110.125,354.437 104.292,346.27 102,335.5C 98.8898,301.507 98.8898,267.507 102,233.5C 106.471,200.043 125.638,184.543 159.5,187C 171.575,187.955 181.742,192.789 190,201.5C 190.825,231.209 190.658,260.875 189.5,290.5C 196.576,291.074 203.576,290.241 210.5,288C 234.586,276.86 259.753,269.36 286,265.5C 295.22,265.349 303.054,268.515 309.5,275C 328.797,284.263 346.463,281.93 362.5,268C 374.215,264.745 385.882,265.078 397.5,269C 417.171,274.668 436.838,280.335 456.5,286C 463.203,286.713 469.87,286.546 476.5,285.5C 476.333,255.831 476.5,226.165 477,196.5C 486.728,187.215 498.228,182.215 511.5,181.5 Z M 519.5,192.5 C 520.966,193.347 521.8,194.68 522,196.5C 523.03,200.773 523.697,205.106 524,209.5C 527.364,210.739 530.864,211.406 534.5,211.5C 534.334,207.486 534.501,203.486 535,199.5C 536.954,203.981 538.287,208.648 539,213.5C 544.622,216.907 548.455,221.741 550.5,228C 550.18,229.653 549.18,230.653 547.5,231C 545.19,231.497 542.857,231.663 540.5,231.5C 544.166,254.148 544.333,276.814 541,299.5C 540.01,276.462 538.176,253.462 535.5,230.5C 532.833,230.5 530.167,230.5 527.5,230.5C 527.185,244.216 527.518,257.883 528.5,271.5C 527.944,282.217 526.777,292.884 525,303.5C 523.39,279.852 522.223,256.185 521.5,232.5C 514.799,232.682 508.799,234.849 503.5,239C 492.987,247.53 486.153,258.363 483,271.5C 483.988,253.439 485.821,235.439 488.5,217.5C 498.292,213.007 508.625,210.674 519.5,210.5C 519.5,204.5 519.5,198.5 519.5,192.5 Z M 151.5,197.5 C 152.49,203.31 152.823,209.31 152.5,215.5C 161.66,216.245 170.16,218.912 178,223.5C 181.319,240.703 183.319,258.037 184,275.5C 179.962,262.589 172.795,251.756 162.5,243C 159.52,240.676 156.187,239.176 152.5,238.5C 151.052,262.139 150.219,285.806 150,309.5C 148.131,300.606 147.131,291.606 147,282.5C 146.667,267.833 146.333,253.167 146,238.5C 141.822,236.601 137.322,235.935 132.5,236.5C 131.958,255.002 131.292,273.502 130.5,292C 131.156,305.543 131.99,319.043 133,332.5C 128.924,318.538 126.091,304.372 124.5,290C 125.332,275.569 125.999,261.069 126.5,246.5C 126.167,243.5 125.833,240.5 125.5,237.5C 116.772,236.388 114.939,232.388 120,225.5C 125.547,220.876 128.547,214.876 129,207.5C 130.608,204.228 132.608,201.228 135,198.5C 134.012,204.395 133.179,210.395 132.5,216.5C 137.511,216.666 142.511,216.499 147.5,216C 148.018,209.663 149.351,203.496 151.5,197.5 Z M 490.5,282.5 C 495.545,282.338 499.378,284.338 502,288.5C 503.37,298.777 503.87,309.111 503.5,319.5C 472.276,315.829 440.943,314.662 409.5,316C 399.346,317.231 389.346,319.231 379.5,322C 363.466,329.384 346.632,333.55 329,334.5C 321.746,334.416 314.58,333.583 307.5,332C 280.24,322.185 252.24,315.518 223.5,312C 203.438,309.891 184.605,313.725 167,323.5C 167.166,311.5 167.666,299.5 168.5,287.5C 176.874,289.012 184.541,292.179 191.5,297C 200.415,299.483 209.415,299.483 218.5,297C 230.5,293.667 242.5,290.333 254.5,287C 262.751,285.106 271.084,284.439 279.5,285C 279.833,285.333 280.167,285.667 280.5,286C 273.657,296.125 275.99,302.958 287.5,306.5C 290.862,305.937 293.862,304.603 296.5,302.5C 297.988,307.404 299.155,312.404 300,317.5C 301.143,320.915 302.81,321.249 305,318.5C 305.5,310.173 305.666,301.84 305.5,293.5C 317.74,299.15 330.406,300.317 343.5,297C 346.461,295.735 349.461,294.569 352.5,293.5C 353.251,294.376 353.751,295.376 354,296.5C 354.361,303.199 355.028,309.865 356,316.5C 356.879,319.346 358.546,320.013 361,318.5C 361.078,311.726 361.745,305.059 363,298.5C 369.921,307.072 377.587,307.739 386,300.5C 388.351,295.443 387.518,290.943 383.5,287C 407.991,288.943 432.491,291.109 457,293.5C 465.634,294.662 473.134,292.496 479.5,287C 483.157,285.178 486.824,283.678 490.5,282.5 Z M 287.5,284.5 C 290.472,286.322 293.472,288.156 296.5,290C 299.407,293.118 298.74,295.285 294.5,296.5C 289.483,293.772 287.15,289.772 287.5,284.5 Z M 373.5,287.5 C 376.094,289.729 375.76,291.895 372.5,294C 368.732,295.209 365.732,294.209 363.5,291C 367.052,290.122 370.386,288.956 373.5,287.5 Z"/></g>
<g><path style="opacity:1" fill="#523e38" d="M 507.5,186.5 C 515.51,186.77 523.51,187.27 531.5,188C 544.238,191.738 552.738,199.904 557,212.5C 560.392,223.242 562.392,234.242 563,245.5C 563.959,271.544 563.292,297.544 561,323.5C 558.425,344.071 546.758,353.738 526,352.5C 514.985,352.748 504.485,350.581 494.5,346C 488.112,341.058 484.445,334.558 483.5,326.5C 483.899,323.935 485.399,322.601 488,322.5C 492.805,323.525 497.638,323.692 502.5,323C 504.815,321.891 506.315,320.057 507,317.5C 507.667,308.833 507.667,300.167 507,291.5C 504.035,281.418 497.202,276.918 486.5,278C 488.654,261.806 496.654,249.14 510.5,240C 512.473,239.505 514.473,239.338 516.5,239.5C 517.852,260.502 519.352,281.502 521,302.5C 524.692,307.55 527.692,306.883 530,300.5C 533.435,272.587 535.435,272.92 536,301.5C 538.829,308.112 541.829,308.112 545,301.5C 549.39,280.845 549.556,260.179 545.5,239.5C 547.495,236.012 549.995,233.012 553,230.5C 553.545,222.586 550.545,216.253 544,211.5C 542.485,207.103 540.818,202.77 539,198.5C 535.125,195.78 531.791,196.446 529,200.5C 527.405,197.879 525.905,195.213 524.5,192.5C 520.811,189.464 517.978,190.13 516,194.5C 515.667,197.5 515.333,200.5 515,203.5C 514.692,204.308 514.192,204.975 513.5,205.5C 506.157,207.269 498.824,209.102 491.5,211C 487.114,212.93 483.948,216.097 482,220.5C 480,213.167 480,205.833 482,198.5C 489.238,191.629 497.738,187.629 507.5,186.5 Z"/></g>
<g><path style="opacity:0.916" fill="#523f38" d="M 255.5,199.5 C 264.813,200.188 274.147,200.688 283.5,201C 288.003,201.068 292.17,202.235 296,204.5C 297.333,222.154 298,239.821 298,257.5C 294.611,247.723 290.944,238.056 287,228.5C 284.627,222.805 281.46,217.638 277.5,213C 258.833,212.667 240.167,212.333 221.5,212C 218.526,210.564 215.526,209.564 212.5,209C 215.046,212.59 217.213,216.423 219,220.5C 219.5,232.162 219.667,243.829 219.5,255.5C 237.592,256.695 255.592,258.695 273.5,261.5C 265.581,262.995 257.581,263.829 249.5,264C 234.5,264.667 219.5,264.667 204.5,264C 204,263.5 203.5,263 203,262.5C 202.5,242.169 202.333,221.836 202.5,201.5C 220.338,201.173 238.004,200.506 255.5,199.5 Z"/></g>
<g><path style="opacity:0.916" fill="#523f38" d="M 403.5,199.5 C 422.815,200.414 442.149,201.08 461.5,201.5C 461.667,221.836 461.5,242.169 461,262.5C 460.5,263 460,263.5 459.5,264C 444.5,264.667 429.5,264.667 414.5,264C 406.419,263.829 398.419,262.995 390.5,261.5C 408.408,258.695 426.408,256.695 444.5,255.5C 444.333,243.829 444.5,232.162 445,220.5C 446.787,216.423 448.954,212.59 451.5,209C 448.474,209.564 445.474,210.564 442.5,212C 423.833,212.333 405.167,212.667 386.5,213C 382.54,217.638 379.373,222.805 377,228.5C 373.056,238.056 369.389,247.723 366,257.5C 366,239.821 366.667,222.154 368,204.5C 371.83,202.235 375.997,201.068 380.5,201C 388.344,200.829 396.011,200.329 403.5,199.5 Z"/></g>
<g><path style="opacity:1" fill="#523e38" d="M 125.5,198.5 C 126.497,198.47 127.164,198.97 127.5,200C 125.231,209.498 121.065,217.998 115,225.5C 113.632,228.738 113.299,232.072 114,235.5C 116.36,237.86 118.694,240.194 121,242.5C 121.178,259.837 121.178,277.17 121,294.5C 121.862,308.348 124.862,321.681 130,334.5C 132.72,337.319 135.053,336.986 137,333.5C 135.056,304.187 135.056,274.854 137,245.5C 137.576,242.876 138.91,242.209 141,243.5C 141.922,262.841 142.922,282.174 144,301.5C 144.033,306.104 145.533,310.104 148.5,313.5C 151.157,315.114 152.99,314.448 154,311.5C 154.333,298.833 154.667,286.167 155,273.5C 155.116,264.876 155.949,256.376 157.5,248C 159.289,247.48 160.956,247.813 162.5,249C 172.69,259.211 179.356,271.377 182.5,285.5C 178.738,285.348 175.072,284.681 171.5,283.5C 166.357,284.765 163.857,288.098 164,293.5C 162.844,303.481 162.511,313.481 163,323.5C 164.255,325.594 166.088,326.594 168.5,326.5C 172.423,325.47 176.257,324.136 180,322.5C 181.261,322.759 182.261,323.426 183,324.5C 185.712,339.745 179.712,349.745 165,354.5C 151.992,357.388 138.825,358.221 125.5,357C 113.858,352.595 107.358,344.095 106,331.5C 103.788,297.805 104.122,264.138 107,230.5C 108.479,222.73 111.146,215.396 115,208.5C 117.738,204.26 121.238,200.926 125.5,198.5 Z"/></g>
<g><path style="opacity:0.963" fill="#523f38" d="M 236.5,217.5 C 250.176,217.699 263.842,218.199 277.5,219C 279.531,226.684 280.864,234.518 281.5,242.5C 267.829,242.667 254.163,242.5 240.5,242C 239,241.167 237.833,240 237,238.5C 236.5,231.508 236.334,224.508 236.5,217.5 Z"/></g>
<g><path style="opacity:0.963" fill="#523f38" d="M 407.5,217.5 C 414.167,217.5 420.833,217.5 427.5,217.5C 427.666,224.508 427.5,231.508 427,238.5C 426.167,240 425,241.167 423.5,242C 409.837,242.5 396.171,242.667 382.5,242.5C 383.231,234.777 384.398,227.11 386,219.5C 393.266,218.849 400.432,218.182 407.5,217.5 Z"/></g>
<g><path style="opacity:0.983" fill="#c41f37" d="M 507.5,359.5 C 512.67,359.334 517.17,361.001 521,364.5C 521.667,378.5 521.667,392.5 521,406.5C 518.128,409.037 515.628,411.87 513.5,415C 512.552,415.483 511.552,415.649 510.5,415.5C 510.334,420.511 510.501,425.511 511,430.5C 514.394,429.544 517.894,429.211 521.5,429.5C 521.5,434.833 521.5,440.167 521.5,445.5C 515.487,445.869 509.487,446.036 503.5,446C 500.833,444 498.167,442 495.5,440C 494.521,433.256 494.188,426.422 494.5,419.5C 491.14,419.616 487.807,419.949 484.5,420.5C 484.752,429.873 484.418,439.207 483.5,448.5C 478.155,448.687 472.822,449.02 467.5,449.5C 468.21,423.842 468.71,398.175 469,372.5C 482.078,368.641 494.911,364.308 507.5,359.5 Z M 503.5,377.5 C 504.5,377.5 505.5,377.5 506.5,377.5C 505.903,385.153 505.403,392.82 505,400.5C 498.364,402.294 491.697,403.961 485,405.5C 484.169,398.144 484.335,390.811 485.5,383.5C 491.71,381.789 497.71,379.789 503.5,377.5 Z"/></g>
<g><path style="opacity:0.974" fill="#c41f37" d="M 167.5,361.5 C 179.623,363.925 191.623,367.092 203.5,371C 206.216,374.261 209.049,377.428 212,380.5C 212.5,387.492 212.666,394.492 212.5,401.5C 207.114,401.223 201.781,400.556 196.5,399.5C 196.5,394.5 196.5,389.5 196.5,384.5C 189.499,383.042 182.665,381.042 176,378.5C 175.333,384.5 175.333,390.5 176,396.5C 185.406,398.916 194.906,401.082 204.5,403C 207,405.5 209.5,408 212,410.5C 212.298,419.68 212.798,428.847 213.5,438C 213.456,439.764 213.122,441.431 212.5,443C 210.167,444.667 207.833,446.333 205.5,448C 193.114,448.496 180.781,447.829 168.5,446C 165.628,443.463 163.128,440.63 161,437.5C 160.5,429.173 160.334,420.84 160.5,412.5C 165.833,413.167 171.167,413.833 176.5,414.5C 176.5,420.167 176.5,425.833 176.5,431.5C 183.141,432.386 189.808,433.053 196.5,433.5C 196.5,427.833 196.5,422.167 196.5,416.5C 187.059,415.245 177.725,413.412 168.5,411C 165.882,408.261 163.382,405.427 161,402.5C 160.595,392.995 160.095,383.495 159.5,374C 159.833,371.5 160.167,369 160.5,366.5C 163.077,365.057 165.41,363.39 167.5,361.5 Z"/></g>
<g><path style="opacity:0.984" fill="#c41f37" d="M 436.5,379.5 C 439.167,379.5 441.833,379.5 444.5,379.5C 444.8,384.099 444.467,388.599 443.5,393C 431.248,395.441 418.915,397.274 406.5,398.5C 406.5,402.833 406.5,407.167 406.5,411.5C 418.844,410.249 431.177,408.915 443.5,407.5C 443.5,412.167 443.5,416.833 443.5,421.5C 431.514,422.732 419.514,423.899 407.5,425C 406.531,429.737 406.197,434.57 406.5,439.5C 418.831,438.792 431.164,438.125 443.5,437.5C 443.5,442.167 443.5,446.833 443.5,451.5C 428.17,452.197 412.836,452.364 397.5,452C 395.333,450.5 393.167,449 391,447.5C 390.333,427.5 390.333,407.5 391,387.5C 406.363,385.427 421.53,382.761 436.5,379.5 Z"/></g>
<g><path style="opacity:0.992" fill="#c41f37" d="M 235.5,380.5 C 240.566,380.34 245.566,380.84 250.5,382C 251.126,382.75 251.626,383.584 252,384.5C 252.5,402.497 252.667,420.497 252.5,438.5C 259.48,439.165 266.48,439.498 273.5,439.5C 273.5,421.833 273.5,404.167 273.5,386.5C 278.862,386.472 284.195,386.806 289.5,387.5C 289.667,407.503 289.5,427.503 289,447.5C 286.92,449.123 284.754,450.623 282.5,452C 269.795,452.848 257.129,452.515 244.5,451C 242.093,448.715 239.593,446.549 237,444.5C 236.611,423.161 236.111,401.828 235.5,380.5 Z"/></g>
<g><path style="opacity:0.992" fill="#c41f37" d="M 314.5,389.5 C 329.505,390.543 344.505,390.709 359.5,390C 362.418,391.709 365.252,393.542 368,395.5C 368.667,406.167 368.667,416.833 368,427.5C 365.5,429.333 363,431.167 360.5,433C 350.506,433.5 340.506,433.666 330.5,433.5C 330.5,440.167 330.5,446.833 330.5,453.5C 325.167,453.5 319.833,453.5 314.5,453.5C 314.5,432.167 314.5,410.833 314.5,389.5 Z M 330.5,402.5 C 337.833,402.5 345.167,402.5 352.5,402.5C 351.628,408.789 351.295,415.122 351.5,421.5C 344.5,421.5 337.5,421.5 330.5,421.5C 330.5,415.167 330.5,408.833 330.5,402.5 Z"/></g>
</svg>
